<?xml version="1.0" standalone="no"?>
<!DOCTYPE svg PUBLIC "-//W3C//DTD SVG 20010904//EN"
 "http://www.w3.org/TR/2001/REC-SVG-20010904/DTD/svg10.dtd">
<svg version="1.0" xmlns="http://www.w3.org/2000/svg"
 width="928.000000pt" height="950.000000pt" viewBox="0 0 928.000000 950.000000"
 preserveAspectRatio="xMidYMid meet">

<g transform="translate(0.000000,950.000000) scale(0.100000,-0.100000)"
fill="#000000" stroke="none">
<path d="M4785 8939 c-16 -5 -73 -16 -125 -24 -52 -7 -113 -23 -135 -34 -21
-12 -49 -21 -62 -21 -22 0 -74 -19 -83 -31 -3 -3 -41 -6 -85 -5 -168 2 -296
-58 -414 -193 -31 -35 -82 -92 -114 -125 -64 -66 -87 -110 -87 -162 0 -19 -5
-34 -11 -34 -5 0 -7 -4 -4 -10 3 -5 -11 -28 -32 -49 -66 -69 -129 -203 -148
-316 -3 -22 -14 -51 -23 -65 -9 -14 -26 -44 -38 -67 -14 -28 -46 -61 -95 -99
-41 -31 -76 -58 -78 -60 -13 -11 13 -16 29 -6 29 18 25 1 -14 -71 -36 -66 -54
-127 -38 -127 5 0 12 15 16 33 10 49 83 190 106 205 27 17 25 0 -4 -35 -31
-37 -43 -96 -26 -128 11 -20 10 -30 -4 -58 -9 -19 -16 -51 -16 -70 0 -23 -6
-37 -17 -41 -18 -7 -28 0 -49 36 -25 44 -33 63 -40 103 -7 39 -8 39 -15 -28
-4 -37 -4 -81 1 -98 5 -17 6 -37 3 -45 -3 -8 0 -14 5 -14 6 0 14 -21 18 -46 5
-35 3 -49 -9 -62 -15 -14 -15 -16 0 -27 13 -10 13 -15 2 -33 -11 -17 -16 -19
-28 -9 -12 10 -13 8 -7 -15 5 -21 3 -28 -8 -28 -8 0 -18 -5 -21 -10 -4 -6 -1
-9 7 -8 9 2 12 -8 9 -37 -4 -49 -17 -75 -36 -75 -19 0 -19 10 1 38 9 13 14 26
11 29 -3 2 -10 -5 -17 -16 -14 -28 -30 -27 -30 2 l0 22 -19 -25 c-11 -13 -22
-36 -24 -50 -3 -14 -17 -42 -31 -62 -14 -21 -23 -44 -20 -52 3 -7 -1 -16 -9
-19 -8 -3 -18 -24 -22 -46 -7 -43 10 -90 61 -166 15 -22 20 -34 11 -26 -15 12
-17 11 -17 -7 0 -12 5 -24 10 -27 17 -10 12 -20 -40 -79 -27 -31 -54 -73 -59
-94 -5 -20 -17 -64 -25 -96 -11 -44 -23 -66 -46 -84 -16 -13 -30 -29 -30 -37
0 -7 -7 -18 -15 -25 -11 -10 -14 -23 -10 -49 4 -20 8 -57 10 -83 3 -48 2 -48
-35 -58 -21 -6 -43 -17 -50 -25 -7 -9 -24 -14 -37 -13 -20 3 -27 -4 -38 -36
-7 -21 -11 -44 -9 -51 3 -7 1 -16 -5 -20 -6 -3 -11 -23 -11 -43 0 -20 -4 -44
-10 -52 -5 -8 -5 -17 0 -20 5 -3 5 -12 0 -20 -8 -13 -10 -12 -10 3 0 24 -17
21 -31 -4 -9 -17 -13 -19 -20 -8 -7 11 -9 9 -9 -7 0 -11 -7 -29 -15 -40 -19
-26 -19 -45 1 -37 14 5 15 1 9 -28 -9 -45 -30 -76 -55 -84 -11 -3 -20 -11 -20
-17 0 -5 -7 -8 -15 -4 -8 3 -15 2 -15 -3 0 -5 -9 -11 -19 -14 -14 -3 -18 -11
-14 -25 3 -13 -3 -25 -19 -36 -16 -12 -19 -19 -11 -24 7 -4 12 -16 11 -27 0
-11 3 -28 7 -37 4 -11 3 -18 -4 -18 -6 0 -11 7 -11 15 0 8 -5 15 -11 15 -7 0
-9 -8 -4 -22 22 -70 20 -75 -29 -82 -43 -7 -75 -25 -38 -22 11 1 18 -7 20 -22
3 -19 6 -21 18 -11 7 6 11 15 8 20 -3 5 8 9 24 9 22 0 32 6 38 23 6 16 9 7 11
-37 2 -33 0 -62 -5 -65 -5 -3 -11 -15 -15 -26 -3 -11 -12 -36 -19 -56 -21 -56
-90 -121 -73 -69 9 28 -4 25 -45 -10 -19 -16 -38 -30 -41 -30 -17 0 -16 -45 2
-83 19 -42 19 -42 -3 -60 -11 -10 -19 -19 -17 -21 8 -8 69 7 69 17 0 15 32 36
54 37 18 0 18 -1 4 -12 -21 -17 -29 -86 -11 -92 17 -7 17 -46 0 -46 -24 0 -60
38 -53 56 5 13 2 15 -16 10 -13 -3 -29 -6 -35 -6 -7 0 -13 -6 -13 -14 0 -9 7
-12 19 -9 14 3 21 -3 29 -26 6 -17 18 -31 26 -31 25 0 19 -24 -19 -73 -30 -40
-62 -133 -50 -145 2 -2 13 -1 24 3 17 5 19 10 11 25 -17 32 -11 48 31 89 23
22 49 51 58 65 l16 24 22 -23 c18 -21 19 -26 7 -42 -13 -17 -15 -17 -28 0 -12
16 -14 15 -26 -15 -7 -18 -19 -38 -27 -44 -12 -10 -11 -17 3 -48 18 -37 34
-47 34 -22 0 8 7 17 16 20 18 7 14 31 -6 31 -16 0 -22 16 -12 32 10 16 52 5
52 -13 0 -13 48 -44 68 -44 5 0 19 26 30 58 39 105 153 281 235 362 20 20 45
61 58 94 15 42 38 76 78 116 54 55 59 57 120 63 36 4 67 10 70 15 10 13 61 35
67 29 8 -7 -68 -42 -123 -57 -55 -14 -59 -23 -17 -36 19 -6 34 -7 34 -3 0 12
85 49 112 49 34 -1 94 -35 78 -45 -9 -6 -10 -9 0 -15 7 -4 14 -25 16 -46 4
-39 4 -39 -13 -17 -13 16 -24 21 -41 17 -13 -4 -22 -3 -20 2 1 5 -10 21 -25
37 -30 29 -48 37 -27 12 7 -8 10 -21 7 -29 -3 -7 0 -19 6 -25 26 -26 -14 -9
-44 19 -38 34 -49 33 -22 -4 23 -31 95 -79 102 -67 10 14 49 22 56 11 3 -5 1
-10 -4 -10 -16 0 -13 -32 4 -54 27 -36 18 -52 -12 -24 -16 14 -55 42 -88 63
-33 21 -81 56 -106 79 -42 38 -99 58 -99 35 0 -5 8 -9 18 -10 20 -1 46 -17
128 -78 95 -71 154 -140 149 -173 -2 -10 1 -18 6 -18 5 0 9 -4 9 -10 0 -5 -7
-10 -16 -10 -9 0 -12 -5 -8 -12 5 -7 2 -9 -8 -5 -12 4 -15 -1 -14 -17 1 -16 6
-22 16 -19 9 3 8 -1 -4 -11 -20 -16 -20 -16 0 -16 16 -1 16 -3 -6 -16 -25 -15
-25 -15 -1 -8 16 4 21 3 17 -5 -4 -6 -4 -11 1 -11 4 0 8 -10 8 -22 1 -13 4
-35 8 -50 6 -23 4 -28 -11 -28 -10 0 -23 -5 -30 -12 -9 -9 -12 -9 -12 0 0 7
-6 12 -14 12 -8 0 -16 4 -18 9 -1 4 -12 0 -22 -10 -19 -18 -19 -19 1 -26 29
-11 76 -70 67 -84 -5 -9 -2 -10 9 -6 14 5 16 1 11 -31 -3 -20 -11 -40 -18 -44
-7 -5 -5 -8 6 -8 9 0 20 -5 24 -12 5 -8 2 -9 -9 -5 -9 3 -16 3 -16 -1 5 -33
-3 -41 -43 -44 -40 -3 -41 -4 -24 -21 10 -9 15 -17 11 -17 -4 0 0 -7 7 -15 37
-41 38 -43 22 -56 -13 -10 -19 -8 -38 12 -42 44 -84 78 -90 72 -3 -4 -6 -1 -6
5 0 7 -7 12 -15 12 -8 0 -12 6 -9 14 3 7 -1 16 -9 19 -24 9 -26 -27 -4 -54 10
-13 20 -22 21 -19 2 7 41 -23 50 -38 4 -7 2 -19 -4 -27 -14 -17 1 -20 17 -4
15 15 34 2 26 -18 -4 -9 -2 -14 3 -10 13 7 32 -23 28 -45 -1 -11 4 -18 14 -18
8 0 12 -3 9 -6 -3 -4 -2 -15 4 -26 7 -14 7 -23 -2 -34 -10 -12 -9 -13 7 -8 18
6 17 5 -1 -9 -15 -13 -16 -16 -5 -17 13 0 13 -1 0 -10 -15 -9 -33 7 -24 22 3
4 -2 5 -10 2 -12 -4 -16 0 -16 16 0 19 -3 20 -15 10 -8 -6 -19 -9 -24 -5 -6 3
-23 -1 -38 -10 -26 -16 -27 -16 -6 0 28 21 20 50 -9 34 -16 -8 -23 -8 -30 2
-8 11 -9 11 -5 -1 2 -8 -5 -26 -17 -40 -11 -13 -14 -19 -6 -13 11 8 18 8 27
-2 9 -10 7 -17 -10 -31 -19 -17 -20 -17 -8 -1 8 9 11 20 9 23 -3 3 -16 -10
-29 -28 -15 -21 -17 -28 -6 -19 14 11 17 11 17 0 0 -7 14 0 32 17 30 26 31 26
9 2 -13 -14 -20 -31 -17 -37 4 -6 1 -9 -7 -5 -8 3 -19 -2 -26 -10 -10 -11 -18
-13 -31 -6 -13 7 -21 6 -26 -2 -4 -6 -3 -9 2 -6 11 6 45 -28 36 -36 -3 -3 0
-6 7 -6 7 0 11 7 8 15 -4 8 -2 17 2 20 5 3 11 -2 14 -9 7 -16 -17 -41 -31 -32
-14 8 -43 -29 -46 -58 -2 -14 0 -26 5 -26 5 0 6 -7 3 -15 -4 -9 3 -19 20 -26
14 -7 24 -15 21 -19 -2 -3 8 -5 23 -2 22 3 28 -1 29 -17 2 -27 -24 -48 -40
-32 -9 10 -8 11 6 6 18 -8 22 2 9 23 -6 9 -14 6 -32 -13 -15 -16 -19 -25 -10
-25 11 0 11 -3 2 -12 -7 -7 -18 -13 -25 -13 -7 -1 -11 -7 -9 -14 1 -7 -2 -19
-8 -25 -5 -7 -7 -16 -3 -20 4 -4 0 -4 -8 -1 -9 3 -16 12 -16 19 0 8 6 12 14 9
7 -3 13 0 13 6 0 6 -5 11 -11 11 -5 0 -7 6 -3 13 9 13 -27 -12 -38 -28 -5 -6
-11 -6 -18 1 -9 9 -9 14 -1 18 6 4 11 17 11 28 0 20 -1 20 -19 4 -11 -10 -18
-26 -16 -36 3 -13 -2 -17 -18 -14 -12 2 -16 2 -9 -2 6 -3 9 -10 6 -16 -4 -6 1
-8 12 -4 11 3 26 1 34 -4 9 -6 11 -10 3 -10 -16 0 -6 -27 13 -34 8 -3 12 -2 9
3 -3 5 -1 12 5 16 16 10 12 -19 -6 -41 -8 -10 -13 -13 -9 -6 3 6 1 12 -4 12
-6 0 -11 -4 -11 -10 0 -15 -40 -12 -40 3 -1 6 -7 0 -16 -15 -10 -19 -20 -26
-32 -22 -14 5 -14 4 -2 -4 8 -6 18 -8 22 -6 4 3 8 0 8 -5 0 -6 7 -11 16 -11 9
0 18 -9 21 -21 3 -11 17 -22 32 -25 18 -4 26 -12 28 -27 0 -12 3 -31 5 -42 2
-16 -2 -19 -24 -17 -19 2 -28 -2 -28 -12 0 -21 -18 -30 -34 -17 -10 8 -17 7
-26 -4 -11 -13 -11 -16 1 -13 8 2 14 -5 14 -17 1 -33 14 -62 30 -62 8 0 15 6
15 14 0 7 -4 13 -10 13 -16 0 -12 46 5 60 12 10 15 10 15 -1 0 -7 11 -3 27 12
19 16 22 17 12 4 -9 -11 -17 -38 -18 -60 -2 -62 -6 -82 -22 -101 -10 -13 -10
-16 -1 -10 20 12 43 -24 31 -46 -8 -15 -12 -16 -23 -6 -9 8 -11 17 -5 24 5 7
4 11 -5 11 -10 0 -13 -11 -9 -39 3 -33 1 -40 -16 -45 -24 -6 -18 -23 9 -23 10
0 21 -7 24 -16 3 -8 2 -13 -3 -10 -5 3 -14 -1 -21 -9 -9 -11 -9 -15 -1 -15 7
0 9 -5 5 -11 -5 -8 -10 -6 -16 5 -11 19 -44 21 -54 4 -4 -7 -4 -10 0 -6 5 4
17 -2 28 -12 11 -10 27 -16 37 -13 9 4 13 2 8 -3 -5 -5 -21 -9 -35 -9 -26 0
-27 -2 -25 -57 1 -63 -12 -84 -48 -75 -12 3 -19 4 -16 1 11 -12 -23 -80 -48
-94 -15 -8 -27 -19 -26 -23 0 -4 1 -12 1 -18 0 -6 9 -8 22 -4 17 6 20 4 15
-10 -4 -9 -7 -21 -7 -26 0 -5 -11 -7 -25 -3 -24 6 -24 6 -9 -26 9 -18 22 -29
29 -26 7 2 22 -5 33 -17 12 -12 33 -31 47 -42 87 -65 127 -104 119 -117 -10
-16 -25 -7 -75 44 -28 29 -61 53 -73 54 -30 2 -66 15 -66 24 0 4 -12 7 -27 8
-16 1 -38 3 -50 6 -13 3 -27 -2 -35 -12 -11 -14 -11 -15 5 -9 13 5 16 3 11 -5
-17 -27 -13 -57 9 -65 12 -4 25 -6 30 -5 4 1 7 -9 7 -23 0 -14 -5 -24 -11 -23
-6 2 -12 -7 -14 -20 -2 -25 5 -28 25 -9 8 7 7 1 -4 -16 -15 -24 -15 -28 -1
-33 13 -5 13 -9 3 -23 -11 -14 -11 -14 3 -4 9 7 20 9 24 5 5 -4 5 -2 2 4 -4 7
2 23 13 35 l21 24 -2 -30 c-2 -53 1 -65 16 -65 8 0 15 -5 15 -12 0 -6 7 -3 15
8 15 19 16 19 13 -1 -2 -12 5 -23 18 -29 12 -6 29 -23 39 -38 13 -23 19 -26
36 -18 10 6 19 8 19 4 0 -4 8 0 18 10 18 15 20 15 37 -4 10 -11 28 -20 39 -20
29 0 50 -15 41 -29 -4 -7 -18 -10 -33 -7 -45 9 -135 7 -182 -4 -25 -5 -59 -12
-75 -15 -73 -11 -202 -57 -224 -79 -30 -30 -23 -50 26 -74 43 -22 130 -45 142
-38 6 4 173 10 209 7 17 -1 15 -31 -3 -31 -12 0 -13 -3 -3 -19 18 -29 40 -15
32 22 -5 26 -4 28 9 16 8 -8 13 -17 11 -20 -7 -11 20 -27 40 -23 19 3 113 -41
151 -70 23 -18 19 -19 -61 -16 -29 1 -55 -3 -59 -9 -3 -6 -22 -11 -42 -11 -46
0 -148 -36 -190 -67 -17 -12 -36 -23 -41 -23 -5 0 -17 -9 -27 -20 -10 -11 -26
-20 -37 -20 -10 0 -18 -4 -18 -9 0 -4 -44 -44 -97 -88 -168 -137 -303 -279
-341 -356 -31 -62 -33 -74 -30 -140 4 -72 27 -127 52 -127 6 0 26 35 45 78 38
86 104 192 130 206 19 12 106 102 128 133 8 13 21 23 28 23 7 0 18 7 25 15 15
18 48 16 68 -3 15 -13 7 -72 -8 -72 -5 0 -7 -7 -4 -15 4 -8 1 -15 -5 -15 -6 0
-8 -7 -5 -15 4 -9 1 -29 -6 -45 -10 -25 -9 -36 7 -72 11 -24 25 -54 31 -68 6
-14 11 -19 11 -12 1 6 12 12 25 12 19 0 23 4 19 20 -5 19 6 29 41 34 8 1 19 5
22 9 4 4 20 7 35 7 21 0 28 5 31 21 3 24 18 35 61 44 57 12 299 281 333 370
11 28 -27 28 -99 0 -90 -33 -189 -56 -201 -45 -20 19 7 40 81 64 43 13 99 34
126 46 34 15 64 20 108 19 52 -2 63 1 85 23 23 22 24 28 15 69 -12 54 -37 276
-51 464 -9 112 -15 143 -29 155 -18 16 -37 159 -61 466 -9 113 -8 134 6 162
14 30 19 32 67 32 84 0 567 20 635 26 37 3 60 10 56 15 -3 6 -9 8 -12 5 -3 -3
-11 3 -19 13 -16 24 1 71 26 72 10 0 12 2 4 6 -25 9 -12 52 36 125 47 70 49
75 41 118 -13 68 4 74 119 36 85 -28 107 -24 141 23 25 36 19 39 -17 11 -28
-22 -65 -25 -133 -9 -50 11 -120 51 -101 57 6 2 18 -1 25 -7 20 -17 138 -30
161 -18 19 10 19 10 -3 20 -15 7 -22 19 -22 38 0 21 -6 29 -22 32 -13 3 3 3
35 0 52 -4 66 -1 123 27 83 43 88 49 74 99 l-10 40 -43 -25 c-23 -13 -57 -24
-75 -24 -20 0 -31 -4 -27 -10 3 -5 17 -10 31 -10 14 0 22 -4 19 -10 -3 -5 -14
-10 -24 -10 -20 0 -54 33 -44 43 3 4 -1 7 -10 7 -24 0 -57 49 -57 84 0 41 25
76 55 76 36 0 83 61 91 119 7 57 19 80 33 66 6 -6 5 -28 -4 -60 -7 -27 -10
-54 -7 -60 4 -5 7 -16 9 -24 5 -33 48 -41 51 -8 2 23 34 126 76 242 28 77 31
89 16 80 -17 -10 -103 -34 -94 -26 5 5 31 16 57 26 27 10 60 27 73 38 14 11
27 17 30 14 6 -6 -13 -110 -26 -142 -5 -11 -11 -42 -13 -69 -3 -27 -10 -52
-17 -56 -12 -7 -33 -40 -46 -70 -3 -8 -10 -24 -15 -35 -20 -46 -28 -110 -18
-157 9 -42 29 -76 29 -50 0 5 8 18 18 30 9 11 30 41 45 67 15 26 31 45 34 41
9 -9 33 14 33 31 0 28 34 58 65 58 17 0 35 6 41 14 8 10 16 -4 33 -60 13 -41
34 -108 48 -149 28 -83 36 -164 37 -345 1 -118 -4 -181 -16 -200 -3 -6 -9 -30
-13 -55 l-7 -46 159 3 c194 4 539 20 693 33 63 6 183 14 265 20 147 9 494 34
905 65 113 8 250 18 305 21 l100 6 26 -28 27 -29 6 -275 c11 -477 15 -730 16
-900 0 -91 3 -227 7 -303 5 -126 8 -137 25 -137 11 0 37 -14 58 -32 30 -23 37
-34 29 -44 -6 -7 -16 -11 -24 -8 -7 3 -16 1 -20 -5 -12 -20 -155 -81 -189 -81
-18 0 -39 -6 -45 -14 -7 -8 -20 -12 -30 -9 -20 5 -51 -21 -51 -43 0 -8 -6 -14
-14 -12 -8 2 -16 -1 -18 -7 -2 -6 36 -11 97 -12 140 -3 283 -21 331 -43 42
-18 94 -75 94 -102 0 -17 -41 -38 -75 -38 -14 0 -25 5 -25 11 0 7 -9 9 -27 3
-75 -20 -170 -7 -159 23 5 11 2 13 -10 9 -8 -3 -18 -6 -20 -6 -3 0 -3 -4 1 -9
3 -6 -7 -6 -27 0 -58 16 -198 -12 -198 -40 0 -5 -15 -14 -32 -21 -18 -6 -40
-15 -48 -19 -8 -4 -27 -3 -43 3 -25 10 -31 8 -47 -11 -9 -12 -20 -19 -24 -16
-3 4 -6 -1 -6 -9 0 -21 -32 -47 -37 -31 -3 8 -11 5 -25 -9 -13 -13 -28 -18
-45 -15 -17 3 -23 1 -19 -9 3 -9 -2 -14 -15 -14 -11 0 -22 7 -25 15 -4 11 -10
12 -18 6 -16 -13 -97 -5 -142 14 -20 8 -38 15 -40 15 -2 0 -4 -51 -4 -112 0
-131 -8 -190 -24 -185 -6 2 -10 14 -8 26 1 15 -3 21 -10 19 -7 -3 -13 -14 -14
-24 -3 -49 -60 -95 -79 -64 -4 6 -15 8 -25 5 -12 -4 -23 3 -34 21 -10 14 -15
28 -13 31 3 2 -1 20 -9 38 -10 25 -11 41 -4 61 16 41 -4 52 -24 13 -9 -18 -16
-38 -16 -44 0 -7 -16 -25 -35 -40 -25 -19 -34 -32 -30 -45 3 -11 0 -20 -10
-24 -8 -3 -15 -14 -15 -25 0 -23 -16 -36 -22 -18 -8 21 -1 77 12 92 7 8 22 15
33 15 27 0 11 16 -25 25 -22 6 -28 4 -28 -9 0 -9 -7 -16 -15 -16 -22 0 -30 63
-11 92 15 23 15 26 -3 42 -24 22 -27 17 -36 -64 -4 -36 -10 -78 -12 -95 -2
-16 -4 -37 -5 -45 -1 -8 -6 -18 -12 -22 -7 -5 -13 10 -16 45 l-5 52 -19 -60
c-10 -33 -24 -78 -31 -100 -11 -36 -15 -40 -41 -37 -16 2 -34 8 -41 14 -9 7
-13 7 -13 0 0 -6 -6 -9 -14 -6 -8 3 -20 -3 -27 -13 -17 -24 -99 -52 -125 -43
-25 9 -55 0 -47 -14 3 -6 0 -6 -8 1 -15 15 -33 17 -24 4 11 -18 -16 -22 -47
-7 -17 9 -39 16 -50 16 -35 0 -17 18 45 44 34 15 78 43 96 62 19 18 38 34 43
34 6 0 19 10 30 22 11 13 16 17 12 9 -5 -10 -3 -12 5 -7 7 5 10 14 7 21 -5 13
70 95 86 95 4 0 8 7 8 15 0 23 21 63 37 69 8 3 17 -3 22 -16 11 -30 17 -15 32
75 10 61 10 84 1 110 -7 19 -12 41 -12 50 0 9 -11 28 -24 44 -20 24 -26 25
-40 14 -9 -7 -16 -9 -16 -4 0 15 -90 -4 -111 -23 -12 -10 -45 -18 -99 -21 -44
-3 -83 -10 -86 -14 -3 -5 -18 -9 -33 -9 -26 0 -110 -34 -121 -49 -12 -17 -145
-121 -154 -121 -5 0 -48 -18 -96 -40 -100 -46 -218 -90 -241 -90 -9 0 -22 -7
-29 -15 -7 -8 -21 -15 -31 -15 -11 0 -36 -9 -56 -20 -21 -11 -52 -20 -69 -20
-20 0 -34 -6 -38 -16 -5 -12 -16 -15 -51 -11 -25 2 -48 0 -51 -4 -8 -13 -58
-11 -71 2 -8 8 -17 7 -34 -5 -26 -18 -69 -22 -69 -6 0 6 7 13 15 16 8 4 13 9
11 13 -3 4 4 12 15 19 16 10 21 10 25 -3 7 -16 34 -21 34 -6 0 18 72 52 99 46
15 -3 40 1 56 9 17 8 49 17 72 19 23 3 48 10 55 16 41 35 99 65 138 73 57 10
175 69 216 106 37 34 50 74 29 92 -8 7 -21 10 -30 7 -8 -4 -27 0 -42 8 -15 8
-36 15 -46 15 -29 0 -30 27 -3 63 34 44 33 73 -1 90 -24 13 -35 12 -94 -4 -38
-10 -85 -28 -106 -38 -42 -22 -129 -44 -243 -61 -41 -6 -98 -16 -127 -22 -44
-9 -56 -8 -78 6 -22 15 -30 29 -22 39 1 2 -4 11 -11 20 -11 13 -10 17 5 25 16
10 15 12 -9 21 -17 6 -28 18 -28 30 0 10 -6 24 -14 30 -8 7 -18 26 -21 42 -4
16 -11 32 -16 35 -23 14 -70 -22 -130 -98 -35 -45 -72 -90 -82 -100 -11 -11
-30 -36 -43 -55 -13 -20 -24 -33 -24 -29 0 12 -25 -17 -33 -37 -4 -10 -11 -15
-17 -12 -5 3 -7 0 -4 -8 6 -16 -23 -50 -36 -42 -13 8 -8 44 7 49 11 4 66 82
68 96 4 27 20 74 41 117 14 29 22 58 19 64 -4 6 -27 9 -58 5 -40 -4 -57 0 -78
15 -15 10 -36 19 -47 19 -11 0 -25 7 -32 15 -7 8 -18 15 -26 15 -7 0 -20 7
-28 16 -14 14 -17 14 -22 0 -3 -9 -14 -13 -27 -10 -12 3 -26 6 -32 7 -5 2 -16
7 -24 11 -9 6 -7 -1 5 -17 15 -20 26 -25 49 -22 17 2 25 2 18 -1 -7 -3 -10
-11 -7 -19 6 -15 -12 -15 -36 0 -15 9 -34 15 -57 17 -7 1 -13 6 -13 11 0 5 -9
7 -20 4 -10 -3 -24 1 -31 9 -9 11 -6 14 16 14 28 0 30 10 3 14 -7 1 -19 5 -25
9 -7 5 -17 6 -23 2 -5 -3 -16 6 -25 19 -9 14 -24 28 -33 30 -14 5 -17 21 -19
83 -3 93 -18 117 -60 93 -28 -16 -96 -105 -138 -180 -14 -25 -52 -85 -84 -135
-33 -49 -79 -121 -102 -160 -61 -102 -110 -173 -146 -211 -17 -19 -37 -50 -44
-69 -7 -19 -17 -35 -21 -35 -4 0 -8 -6 -8 -13 0 -14 -60 -73 -60 -60 -1 24
-18 35 -39 24 -32 -17 -27 -41 9 -41 25 0 30 -4 30 -24 0 -26 -23 -37 -55 -26
-31 11 -45 -10 -29 -41 l13 -26 -52 9 c-49 8 -113 17 -164 22 -13 1 -26 6 -30
9 -12 13 -33 7 -33 -9 0 -11 5 -14 16 -10 21 8 41 -4 24 -14 -9 -6 -6 -10 9
-15 24 -7 28 -33 6 -42 -21 -7 -105 25 -112 43 -3 9 -13 12 -23 9 -9 -3 -30
-1 -46 6 -16 6 -48 12 -71 14 l-42 3 14 -36 c7 -20 21 -52 30 -70 24 -46 12
-50 -21 -7 -51 67 -74 131 -74 205 0 37 -6 85 -14 106 -57 164 -79 484 -56
809 25 342 55 561 107 795 18 85 43 196 54 245 10 50 26 110 34 135 8 25 23
79 34 120 30 116 93 421 88 426 -2 2 -35 -30 -75 -70 -57 -58 -77 -72 -95 -69
-17 3 -34 -7 -67 -39 -25 -24 -56 -51 -69 -59 -15 -10 -22 -20 -17 -28 6 -9
17 -7 44 9 l37 21 -30 -27 c-79 -70 -105 -96 -105 -105 0 -6 -4 -8 -8 -5 -5 3
-62 -47 -128 -111 -65 -64 -162 -155 -214 -201 -52 -47 -105 -95 -117 -108
-12 -13 -32 -26 -45 -28 -13 -2 -22 -8 -21 -13 1 -5 -7 -10 -18 -10 -11 -1
-31 -16 -45 -32 -14 -17 -29 -31 -34 -31 -14 0 0 35 26 66 37 42 8 45 -30 3
-17 -19 -34 -33 -38 -31 -4 1 -8 -2 -8 -8 0 -5 -32 -42 -70 -82 -41 -41 -68
-78 -65 -85 2 -8 1 -12 -3 -10 -4 3 -16 -5 -27 -16 -11 -11 -14 -16 -6 -12 9
5 12 4 7 -3 -4 -7 -16 -12 -27 -12 -10 0 -19 -4 -19 -10 0 -5 -9 -19 -20 -30
-25 -25 -61 -96 -53 -104 4 -3 1 -6 -5 -6 -7 0 -12 -6 -12 -13 0 -7 -16 -36
-35 -64 -19 -29 -35 -57 -35 -63 0 -6 -9 -29 -20 -50 -11 -22 -19 -45 -18 -52
2 -7 -2 -12 -9 -11 -6 2 -22 -11 -35 -28 -56 -72 -81 -99 -95 -99 -8 0 -11 -4
-8 -10 3 -5 -1 -10 -9 -10 -9 0 -16 -9 -16 -20 0 -11 -6 -20 -14 -20 -13 0
-46 -56 -46 -79 0 -6 -6 -11 -14 -11 -8 0 -18 -10 -21 -22 -4 -13 -22 -39 -39
-58 -18 -19 -41 -52 -52 -73 -10 -21 -34 -52 -51 -69 -18 -18 -33 -36 -33 -42
0 -5 -10 -23 -23 -40 -31 -42 -119 -184 -211 -342 l-76 -131 0 -386 0 -387
4311 2 4311 3 39 109 c54 153 52 239 -10 303 -11 12 -21 27 -21 33 0 5 -4 10
-9 10 -5 0 -33 25 -62 55 -29 30 -58 55 -65 55 -7 0 -11 6 -10 13 3 20 16 37
29 37 8 0 7 -3 -2 -9 -10 -7 -8 -9 10 -8 23 2 24 5 21 62 -3 65 4 90 43 144
31 42 32 61 3 60 -13 0 -34 2 -48 6 -17 5 -21 4 -11 -3 9 -6 10 -12 2 -16 -6
-4 -17 9 -26 30 -13 31 -17 34 -30 24 -12 -10 -15 -10 -15 0 0 7 -8 10 -19 7
-12 -3 -22 1 -26 12 -6 14 -8 14 -22 -4 -10 -13 -14 -15 -10 -4 4 13 -3 16
-44 14 -28 -1 -49 2 -49 8 0 6 32 8 89 4 81 -6 89 -5 94 12 2 10 0 26 -5 35
-6 10 -5 16 2 16 5 0 10 7 10 15 0 8 -5 15 -12 15 -9 0 -9 3 0 12 14 14 16 42
2 33 -9 -5 -14 16 -13 52 1 7 -4 13 -9 13 -7 0 -6 5 1 13 8 11 5 17 -15 26
-15 6 -24 14 -21 18 4 3 13 0 22 -7 11 -9 15 -10 15 0 0 6 -10 20 -21 29 -12
10 -20 23 -17 31 3 10 8 9 20 -4 10 -10 19 -12 23 -6 3 5 1 10 -5 10 -6 0 -8
5 -5 10 3 6 2 10 -3 10 -5 0 -10 25 -10 55 0 30 -3 63 -7 75 -3 11 -2 20 3 20
6 0 5 17 -3 42 -10 34 -10 52 1 91 13 49 13 49 -10 43 -32 -8 -38 2 -19 30 10
16 11 24 4 24 -6 0 -14 -6 -17 -14 -12 -31 -84 4 -84 41 0 13 5 23 10 23 15 0
12 20 -7 38 -16 16 -15 17 0 20 16 3 15 6 -3 29 -15 20 -17 29 -9 39 9 11 7
20 -5 39 -9 14 -14 30 -11 35 3 5 0 12 -6 15 -5 4 -8 14 -4 23 3 8 -4 25 -16
38 -15 16 -20 30 -15 47 4 16 0 29 -9 37 -21 18 -19 30 7 30 20 0 20 1 5 18
-10 10 -17 25 -17 33 -1 21 -25 49 -43 49 -9 0 -18 4 -21 8 -2 4 10 6 29 4 36
-4 37 -2 50 72 5 33 4 38 -9 33 -9 -4 -16 -4 -16 -1 0 2 11 9 25 14 26 10 34
29 13 32 -7 0 -17 2 -23 2 -5 1 -16 5 -22 9 -7 5 -13 6 -13 2 0 -3 -9 -1 -20
5 -11 6 -20 7 -20 3 0 -5 -15 -8 -32 -8 -27 0 -34 -4 -36 -23 -2 -13 2 -30 10
-39 12 -15 11 -15 -9 -4 -13 6 -28 21 -34 34 -14 25 -13 110 2 115 5 2 9 10 9
18 0 29 16 13 18 -18 3 -42 15 -53 42 -38 21 11 21 12 3 27 -16 13 -16 14 0 9
11 -3 17 0 17 9 0 8 5 15 10 15 6 0 10 5 10 11 0 8 -4 8 -15 -1 -8 -6 -19 -9
-25 -5 -14 9 -13 28 2 23 12 -4 45 19 37 26 -2 2 -13 9 -24 15 -15 9 -16 11
-2 7 19 -6 23 4 6 21 -8 8 -8 13 0 17 6 4 11 16 11 27 0 12 -5 17 -10 14 -14
-9 -40 13 -40 34 1 14 2 14 11 -1 12 -22 33 -24 25 -3 -3 8 0 15 6 15 7 0 7 4
-1 14 -6 8 -11 18 -9 22 1 5 -3 19 -10 31 -8 15 -9 24 -1 28 6 4 8 13 5 20 -3
8 0 15 6 17 8 3 7 13 -3 34 -10 21 -23 31 -49 35 -35 6 -35 6 9 8 35 1 42 4
37 17 -3 9 -6 18 -6 20 0 2 -6 4 -14 4 -7 0 -26 7 -42 15 -22 11 -30 12 -36 2
-5 -8 -8 -6 -8 7 0 13 5 16 18 11 41 -16 69 -16 81 -2 22 27 -24 42 -146 49
-18 1 -33 7 -33 13 0 7 -14 15 -31 19 -17 3 -43 14 -58 25 -14 11 -40 21 -56
24 -28 4 -29 5 -7 12 21 7 31 25 13 25 -4 0 -6 11 -3 25 3 16 0 25 -8 25 -14
0 -74 -32 -78 -42 -2 -5 -11 -8 -19 -8 -13 0 -13 -2 -2 -17 13 -15 11 -16 -11
-10 -14 4 -31 7 -37 7 -7 0 -13 6 -13 13 0 11 85 57 106 57 5 0 20 9 34 20 14
11 31 20 39 20 8 0 19 8 26 17 11 14 9 20 -10 35 -26 21 -49 75 -34 83 9 6 58
-25 59 -37 0 -5 7 -8 15 -8 9 0 21 -12 28 -27 7 -16 19 -29 27 -31 8 -2 23
-13 32 -25 10 -13 29 -22 47 -23 26 -1 31 2 31 21 0 17 -7 25 -22 27 -27 4
-39 48 -14 48 9 0 16 6 16 13 0 8 9 22 20 32 23 21 37 82 23 96 -7 7 -12 0
-16 -20 -8 -36 -27 -42 -27 -8 0 24 -37 67 -57 67 -6 0 -23 16 -38 36 l-27 35
29 11 c41 16 67 73 52 116 -11 32 -31 40 -59 22 -18 -11 -40 5 -40 30 0 13 6
17 20 13 21 -6 28 13 8 20 -10 3 -10 9 1 29 11 22 11 30 -2 56 -13 27 -13 32
1 46 10 10 15 31 13 63 -1 37 -8 54 -30 78 -31 32 -61 86 -61 108 0 7 14 23
30 35 17 13 30 29 30 37 0 18 -5 19 -30 3 -27 -17 -31 -9 -21 48 8 55 -6 113
-35 146 -29 31 -34 9 -8 -37 23 -43 20 -61 -6 -31 -6 8 -17 13 -25 10 -7 -3
-16 0 -20 6 -6 9 -10 9 -16 -1 -7 -11 -14 -7 -34 16 -30 36 -31 45 -6 45 31 0
51 11 51 28 0 12 -3 13 -12 4 -16 -16 -28 -15 -28 3 0 14 11 19 36 16 17 -2
23 47 8 60 -7 6 -25 35 -38 65 -20 44 -31 55 -55 60 -23 5 -29 11 -26 26 3 12
12 29 21 39 9 10 18 38 21 63 4 41 2 46 -24 62 -15 10 -41 30 -56 46 l-29 27
27 66 c22 56 24 69 13 83 -21 27 -31 32 -71 32 -28 0 -44 6 -58 23 -22 27 -23
37 -5 74 8 15 18 42 24 58 5 17 13 38 17 47 5 13 0 19 -22 24 -42 10 -101 42
-111 60 -6 11 -3 28 10 52 24 47 23 58 -7 114 -20 37 -25 62 -25 115 0 89 -21
131 -78 158 -60 29 -79 50 -63 69 7 8 15 41 18 73 5 56 4 60 -40 119 -24 33
-50 71 -57 84 -7 14 -15 18 -19 12 -4 -7 -12 -8 -20 -2 -8 4 -19 6 -25 4 -18
-7 -38 53 -46 134 -5 51 -13 79 -27 95 -22 24 -59 115 -55 134 2 8 -3 10 -13
7 -10 -4 -15 0 -15 10 0 9 -13 29 -28 44 -43 42 -46 60 -17 98 30 39 32 54 6
54 -23 0 -45 50 -38 87 3 14 -2 46 -11 70 -13 34 -14 46 -4 52 9 5 10 20 3 54
-4 26 -6 47 -3 47 3 0 -1 8 -9 18 -8 9 -24 35 -34 57 -11 22 -29 49 -41 60
-28 27 -64 47 -64 37 0 -5 10 -14 23 -20 21 -10 20 -11 -10 -9 -17 0 -30 4
-27 8 6 10 -32 90 -39 82 -6 -6 -8 0 -11 47 -1 8 -5 21 -9 28 -5 7 -6 25 -2
39 9 36 -15 122 -37 134 -10 5 -18 13 -18 18 0 5 -15 25 -34 46 -50 55 -97
133 -83 139 9 3 9 5 0 5 -7 1 -13 6 -13 11 0 6 -9 21 -21 33 -13 14 -19 31
-16 46 8 43 -32 127 -82 173 -71 65 -100 88 -111 88 -12 0 -24 45 -15 60 3 5
-1 17 -9 26 -9 8 -16 23 -16 32 -1 21 -48 85 -84 113 -14 11 -26 26 -26 34 0
7 -8 12 -17 11 -11 0 -17 5 -16 14 2 9 -7 20 -20 26 -12 5 -21 15 -20 21 3 13
-43 53 -61 53 -6 0 -21 15 -33 34 -15 24 -33 36 -60 43 -30 7 -39 14 -41 33
-2 18 -15 30 -43 43 -21 10 -52 32 -68 48 -16 16 -36 29 -45 29 -8 0 -18 5
-21 10 -3 6 -25 19 -48 30 -23 12 -55 29 -72 40 -44 29 -73 38 -210 63 -44 8
-125 27 -180 41 -112 29 -235 40 -280 25z m-1055 -544 c-6 -19 -16 -38 -22
-41 -14 -9 -1 66 15 85 17 20 21 -3 7 -44z m604 -256 c-4 -7 -1 -10 7 -7 8 3
22 -2 32 -10 14 -12 22 -13 40 -4 30 16 107 24 107 12 0 -6 10 -10 23 -10 17
0 19 -2 7 -10 -26 -16 15 -23 47 -7 18 9 38 11 55 6 16 -4 43 -2 63 4 25 7 41
7 58 -1 12 -6 31 -12 42 -14 12 -2 21 -12 23 -26 4 -26 20 -30 18 -4 -1 22 57
27 75 6 6 -8 18 -14 25 -14 8 0 14 -2 14 -4 0 -2 3 -11 6 -20 5 -12 0 -16 -17
-16 -19 0 -11 -7 30 -30 61 -34 68 -36 52 -16 -9 11 -8 15 5 20 11 4 22 -1 31
-14 8 -11 22 -20 31 -21 10 -1 7 -4 -8 -8 -24 -7 -24 -8 13 -21 20 -8 37 -18
37 -22 0 -19 38 -48 53 -42 21 8 22 -5 1 -34 -20 -29 -14 -35 21 -22 15 6 30
9 32 6 3 -2 -5 -7 -17 -11 l-22 -7 24 -26 c12 -14 16 -22 8 -18 -9 5 -8 2 2
-7 10 -8 15 -17 12 -20 -3 -3 4 -3 17 0 17 5 21 3 16 -9 -3 -9 0 -21 6 -28 9
-10 7 -11 -10 -5 -18 5 -22 3 -17 -9 3 -9 15 -16 25 -16 56 0 105 -64 74 -96
-11 -12 -72 -46 -90 -51 -5 -1 -43 -13 -82 -27 -40 -13 -94 -27 -120 -29 -27
-3 -59 -9 -72 -13 -19 -6 -23 -4 -19 8 4 9 0 15 -9 15 -9 0 -13 -7 -10 -18 3
-12 -6 -27 -27 -42 -17 -14 -49 -52 -71 -85 -25 -39 -43 -58 -49 -52 -20 20
-37 9 -67 -45 -33 -59 -49 -75 -49 -51 0 19 -16 21 -26 4 -4 -6 0 -16 9 -23
14 -10 15 -14 2 -33 -10 -13 -12 -23 -5 -27 5 -3 10 1 10 9 0 9 5 16 10 16 6
0 10 -4 10 -9 0 -5 6 -9 13 -8 35 1 47 -5 47 -23 0 -11 6 -20 13 -20 6 0 36
-23 66 -50 29 -28 57 -50 62 -50 5 0 8 -3 7 -7 -1 -9 5 -27 30 -86 9 -23 20
-36 29 -33 7 3 12 2 12 -2 -3 -20 3 -28 23 -29 13 -1 24 -7 26 -13 2 -5 18
-10 35 -10 29 0 30 1 11 15 -19 15 -19 15 1 8 19 -6 19 -5 -2 19 -13 13 -23
29 -23 35 0 6 -7 16 -15 23 -19 16 -20 50 -1 50 8 0 16 5 18 12 6 17 29 19
177 18 128 0 138 1 238 36 122 41 123 40 144 -56 6 -30 16 -61 21 -67 7 -9 6
-15 -6 -19 -12 -5 -13 -10 -5 -26 6 -11 17 -17 25 -14 8 3 14 -1 14 -9 0 -8 4
-15 9 -15 16 0 -7 -84 -28 -101 -12 -10 -21 -21 -21 -26 0 -23 -58 -57 -72
-43 -2 1 -14 4 -28 5 -57 5 -154 25 -159 32 -3 5 -33 22 -66 38 -52 26 -71 30
-143 30 -68 0 -81 3 -77 15 4 8 3 11 -1 7 -4 -4 -18 0 -32 9 -13 9 -22 11 -18
6 3 -6 -2 -13 -11 -15 -11 -3 -6 -6 12 -7 30 -2 30 -2 5 -10 -19 -6 -21 -8 -6
-9 11 -1 17 -4 13 -7 -7 -7 28 -80 43 -89 6 -4 7 1 3 11 -5 15 -2 16 28 10 19
-3 45 -18 59 -31 20 -21 23 -29 14 -52 -12 -35 -63 -52 -99 -33 -22 12 -31 10
-87 -18 -66 -33 -133 -107 -131 -143 1 -11 -3 -16 -11 -13 -10 4 -12 -2 -8
-21 2 -15 11 -29 18 -32 8 -3 14 -11 14 -18 0 -34 63 -32 170 6 47 17 93 31
103 32 9 1 17 4 17 8 0 14 62 21 73 9 9 -9 8 -11 -3 -9 -14 2 -74 -21 -110
-42 -42 -26 -125 -60 -153 -63 -18 -3 -44 -9 -59 -15 -16 -6 -28 -9 -28 -6 0
2 -16 -3 -35 -11 -38 -15 -152 -38 -246 -49 -47 -5 -58 -3 -73 14 -15 16 -17
29 -11 72 7 49 57 173 75 184 4 3 2 26 -4 52 -11 43 -15 48 -37 44 -13 -1 -26
-6 -29 -10 -3 -4 -21 -14 -40 -24 -20 -9 -58 -41 -85 -72 -28 -31 -58 -65 -68
-75 -10 -10 -20 -25 -21 -35 -1 -9 -8 -20 -14 -24 -15 -9 -91 -158 -84 -165 3
-3 -3 -6 -14 -7 -18 0 -18 -1 1 -9 19 -8 19 -9 -2 -9 -17 -1 -21 -6 -17 -18 9
-29 -25 16 -42 54 -17 40 -39 56 -30 22 6 -21 5 -22 -4 -6 -9 14 -9 22 0 33
10 11 10 14 1 14 -7 0 -9 5 -6 10 3 6 0 10 -7 10 -15 0 -59 132 -78 230 -6 30
-16 69 -22 85 -5 17 -14 104 -18 195 -7 153 -9 169 -35 218 -21 42 -29 73 -35
151 -4 54 -12 107 -18 118 -23 42 0 352 29 393 28 41 59 145 59 199 0 27 5 53
10 56 6 3 10 15 10 26 0 10 8 28 18 38 9 11 25 31 35 45 14 20 27 26 53 26 25
0 49 10 81 35 26 20 57 38 70 41 15 4 22 12 19 20 -11 28 6 74 26 74 12 0 16
-4 12 -11z m-54 -19 c-6 -11 -16 -18 -21 -14 -6 3 -3 12 8 20 24 18 26 17 13
-6z m2035 -160 c3 -5 1 -10 -4 -10 -6 0 -11 5 -11 10 0 6 2 10 4 10 3 0 8 -4
11 -10z m-2915 -296 c0 -3 -9 -17 -20 -31 -22 -28 -28 -15 -8 17 12 19 28 27
28 14z m-48 -89 c-2 -14 -8 -25 -13 -25 -10 0 -12 34 -2 43 13 14 20 6 15 -18z
m2135 -137 c-3 -8 -6 -5 -6 6 -1 11 2 17 5 13 3 -3 4 -12 1 -19z m-17 -8 c10
-18 8 -20 -25 -20 -19 0 -35 4 -35 8 0 7 28 25 47 31 1 1 7 -8 13 -19z m-40
-40 c0 -5 8 -7 18 -3 9 3 14 3 10 -1 -12 -14 -78 -24 -84 -14 -4 6 0 14 7 19
19 12 49 11 49 -1z m-2140 -244 c0 -2 -7 -9 -15 -16 -13 -11 -14 -10 -9 4 5
14 24 23 24 12z m1950 -15 c0 -10 7 -24 15 -31 25 -21 17 -30 -25 -30 -34 0
-40 3 -40 21 0 29 18 59 35 59 8 0 15 -8 15 -19z m1463 -31 c3 -13 0 -20 -9
-20 -8 0 -14 10 -14 26 0 28 15 25 23 -6z m-1459 -60 c-5 -5 -25 -12 -44 -15
l-35 -5 30 14 c35 18 64 21 49 6z m-2078 -167 c-10 -10 -19 5 -10 18 6 11 8
11 12 0 2 -7 1 -15 -2 -18z m14 -33 c0 -12 -109 -120 -121 -120 -15 0 3 29 46
73 20 20 33 37 29 37 -3 0 -1 6 6 14 11 15 40 11 40 -4z m758 -13 c5 -24 -15
-21 -21 4 -3 13 -1 19 6 16 7 -2 13 -11 15 -20z m-869 -41 c-7 -19 -19 -38
-26 -40 -20 -8 -15 19 7 39 11 10 20 25 20 33 0 9 3 13 6 9 3 -3 0 -21 -7 -41z
m3026 4 c-3 -5 -16 -10 -28 -9 -20 1 -20 2 3 9 14 4 26 8 28 9 2 1 0 -3 -3 -9z
m-3080 -10 c3 -5 1 -10 -4 -10 -6 0 -11 5 -11 10 0 6 2 10 4 10 3 0 8 -4 11
-10z m1 -44 c16 -16 19 -62 5 -71 -12 -7 -17 2 -25 48 -7 40 -3 45 20 23z
m3804 -12 c0 -3 -6 -12 -14 -19 -17 -17 -30 -7 -15 12 12 13 29 18 29 7z
m-3118 -79 c2 -19 0 -35 -4 -35 -4 0 -8 16 -8 35 0 19 2 35 4 35 2 0 6 -16 8
-35z m-62 -107 c0 -5 -4 -8 -10 -8 -5 0 -10 10 -10 23 0 18 2 19 10 7 5 -8 10
-18 10 -22z m-589 -134 c-10 -32 -25 -87 -32 -122 -11 -52 -17 -64 -37 -69
-30 -7 -33 -3 -39 54 -3 26 -10 54 -15 60 -7 9 -6 15 5 19 8 3 18 17 21 30 4
14 25 45 48 70 35 38 43 43 55 31 12 -12 11 -23 -6 -73z m109 22 c0 -3 -4 -8
-10 -11 -5 -3 -10 -1 -10 4 0 6 5 11 10 11 6 0 10 -2 10 -4z m-80 -43 c0 -10
-7 -27 -15 -37 -16 -22 -20 -9 -9 32 7 26 24 30 24 5z m-159 -106 c-8 -8 -11
-7 -11 4 0 20 13 34 18 19 3 -7 -1 -17 -7 -23z m834 -47 c3 -5 1 -10 -4 -10
-6 0 -11 5 -11 10 0 6 2 10 4 10 3 0 8 -4 11 -10z m1559 -56 c10 -38 -2 -67
-25 -61 -12 3 -23 -2 -30 -14 -13 -26 -57 -43 -74 -29 -9 8 -14 3 -18 -19 -5
-24 -13 -30 -52 -40 -25 -6 -50 -9 -55 -6 -4 3 -10 0 -12 -7 -5 -15 -185 -22
-193 -7 -4 5 -15 7 -24 4 -10 -3 -24 1 -31 10 -7 8 -18 15 -25 15 -13 0 -55
59 -55 77 0 5 8 10 18 11 21 2 178 12 252 15 30 2 68 8 83 15 34 15 60 15 73
2 7 -7 17 0 32 20 25 33 43 38 62 15 11 -14 14 -13 27 5 19 28 40 25 47 -6z
m-2391 -45 c16 -22 7 -79 -17 -108 -9 -12 -8 -13 4 -6 13 8 13 6 1 -8 -18 -23
-46 -7 -49 30 -1 15 -7 40 -13 56 -9 21 -8 31 1 42 18 22 56 18 73 -6z m754
-46 c-9 -9 -20 -13 -24 -9 -4 4 -1 11 7 16 25 16 35 11 17 -7z m933 -49 c29
-19 43 -24 52 -16 9 7 27 3 61 -13 48 -24 138 -46 167 -43 30 4 140 -14 140
-23 0 -5 -5 -9 -12 -9 -6 0 -8 -3 -5 -7 13 -13 -87 -63 -125 -63 -57 0 -51
-16 27 -69 71 -49 112 -50 275 -7 74 19 147 37 162 40 38 7 69 25 105 62 25
27 32 30 37 18 12 -32 5 -64 -24 -114 -16 -28 -30 -54 -30 -58 0 -14 -107
-120 -128 -126 -12 -4 -22 -11 -22 -16 0 -12 -31 -22 -82 -25 -33 -3 -67 -15
-117 -45 -97 -58 -128 -60 -221 -16 -114 55 -155 82 -212 139 -15 15 -31 27
-36 27 -5 0 -15 7 -22 15 -11 13 -10 14 2 10 11 -5 14 1 10 25 -2 17 -10 30
-18 30 -12 0 -12 4 -4 21 7 11 9 23 6 27 -3 3 -6 1 -6 -5 0 -6 -7 -13 -15 -17
-15 -6 -17 14 -1 25 4 4 -1 44 -13 90 -26 101 -26 99 -1 99 15 0 20 7 20 29 0
16 -6 32 -12 34 -7 3 -10 6 -5 6 4 1 25 -11 47 -25z m705 -9 c-16 -13 -38 -24
-47 -25 -9 0 -23 -2 -31 -5 -8 -4 -14 0 -14 9 0 8 3 14 6 14 3 -1 22 6 41 15
19 9 44 16 55 17 17 0 16 -4 -10 -25z m-105 -25 c0 -5 -5 -10 -11 -10 -5 0 -7
5 -4 10 3 6 8 10 11 10 2 0 4 -4 4 -10z m1905 -10 c3 -5 1 -10 -4 -10 -6 0
-11 5 -11 10 0 6 2 10 4 10 3 0 8 -4 11 -10z m-3910 -51 c11 -17 -1 -21 -15
-4 -8 9 -8 15 -2 15 6 0 14 -5 17 -11z m-380 -38 c-3 -6 -14 -11 -23 -11 -15
1 -15 2 2 15 21 16 32 13 21 -4z m3000 -1 c3 -5 1 -10 -4 -10 -6 0 -11 5 -11
10 0 6 2 10 4 10 3 0 8 -4 11 -10z m-2972 -44 c4 -10 1 -13 -8 -9 -8 3 -12 9
-9 14 7 12 11 11 17 -5z m-106 -10 c-2 -6 -17 -15 -33 -21 -16 -5 -32 -14 -36
-20 -11 -16 -19 1 -13 27 6 22 12 25 46 25 25 0 38 -4 36 -11z m46 -34 c-5
-11 -8 -11 -20 0 -8 8 -11 22 -7 32 6 16 7 16 19 -1 7 -9 10 -23 8 -31z m460
-15 c-3 -5 -10 -4 -15 1 -6 6 -7 16 -3 22 6 9 9 9 16 -1 4 -7 5 -17 2 -22z
m382 13 c3 -5 2 -10 -4 -10 -5 0 -13 5 -16 10 -3 6 -2 10 4 10 5 0 13 -4 16
-10z m2405 -51 c0 -6 -4 -7 -10 -4 -5 3 -10 11 -10 16 0 6 5 7 10 4 6 -3 10
-11 10 -16z m-237 5 c8 -8 -3 -34 -14 -34 -5 0 -9 9 -9 20 0 19 11 26 23 14z
m-3150 -34 c-3 -12 -8 -19 -11 -16 -5 6 5 36 12 36 2 0 2 -9 -1 -20z m647 -26
c0 -8 -9 -14 -20 -14 -23 0 -25 6 -7 24 14 16 27 11 27 -10z m3845 16 c4 -6
11 -8 16 -5 15 10 22 -22 9 -44 -14 -28 -26 -26 -34 3 -3 13 -9 31 -12 40 -7
17 11 22 21 6z m-4320 -10 c-3 -5 -12 -10 -20 -10 -8 0 -17 5 -20 10 -4 6 5
10 20 10 15 0 24 -4 20 -10z m882 -22 c-3 -7 -5 -2 -5 12 0 14 2 19 5 13 2 -7
2 -19 0 -25z m2083 11 c0 -6 -4 -7 -10 -4 -5 3 -10 11 -10 16 0 6 5 7 10 4 6
-3 10 -11 10 -16z m1440 -55 c0 -8 -3 -14 -8 -14 -11 0 -32 37 -25 44 9 8 33
-14 33 -30z m-4571 -26 c1 -10 -3 -18 -8 -18 -12 0 -21 38 -14 58 6 13 8 13
14 -4 4 -10 8 -27 8 -36z m4536 22 c3 -5 1 -10 -4 -10 -6 0 -11 5 -11 10 0 6
2 10 4 10 3 0 8 -4 11 -10z m-28 -32 c-3 -8 -6 -5 -6 6 -1 11 2 17 5 13 3 -3
4 -12 1 -19z m-4573 4 c2 -4 1 -14 -4 -22 -7 -11 -12 -12 -21 -3 -6 6 -8 16
-5 22 8 13 23 14 30 3z m4606 -2 c0 -5 -5 -10 -11 -10 -5 0 -7 5 -4 10 3 6 8
10 11 10 2 0 4 -4 4 -10z m-1450 -38 c0 -7 -4 -10 -10 -7 -5 3 -10 16 -10 28
0 18 2 19 10 7 5 -8 10 -21 10 -28z m253 6 c4 -12 4 -24 1 -27 -8 -9 -37 27
-30 38 11 17 23 13 29 -11z m-3420 -38 c-6 -22 -21 -35 -30 -26 -5 5 24 46 33
46 1 0 0 -9 -3 -20z m3247 -11 c0 -10 -4 -19 -9 -19 -12 0 -23 29 -15 41 8 14
24 0 24 -22z m1484 -59 c7 -53 -5 -90 -29 -90 -27 0 -27 21 1 128 8 28 22 9
28 -38z m-4644 6 c0 -6 -7 -2 -15 8 -14 19 -15 19 -15 1 0 -10 -3 -16 -6 -12
-4 3 -4 14 0 23 5 13 9 14 21 4 8 -7 15 -18 15 -24z m3230 -36 c0 -5 -5 -10
-11 -10 -5 0 -7 5 -4 10 3 6 8 10 11 10 2 0 4 -4 4 -10z m1298 -15 c-3 -3 -9
2 -12 12 -6 14 -5 15 5 6 7 -7 10 -15 7 -18z m-1358 -25 c12 -8 10 -10 -9 -10
-18 0 -22 -4 -16 -17 4 -13 3 -15 -5 -7 -10 10 -4 44 9 44 3 0 13 -5 21 -10z
m118 -12 c-5 -15 -23 -11 -26 6 -2 11 2 14 13 10 9 -4 14 -11 13 -16z m-3528
-33 c0 -8 -9 -15 -20 -15 -20 0 -26 11 -13 23 12 13 33 7 33 -8z m4904 -48
c13 -9 16 -20 11 -40 -4 -15 -10 -27 -14 -27 -3 0 -15 -3 -27 -6 -17 -5 -22 0
-27 25 -11 56 15 78 57 48z m89 -14 c-7 -3 -13 -12 -14 -21 0 -11 -2 -13 -6
-4 -6 15 17 46 26 36 3 -4 0 -9 -6 -11z m-1573 -73 c0 -22 -4 -28 -15 -24 -16
7 -18 14 -9 38 10 26 24 18 24 -14z m1597 -12 c-3 -8 -6 -5 -6 6 -1 11 2 17 5
13 3 -3 4 -12 1 -19z m-57 -29 c0 -11 -4 -17 -10 -14 -5 3 -10 13 -10 21 0 8
5 14 10 14 6 0 10 -9 10 -21z m-30 -49 c-21 -14 -30 -12 -30 4 0 18 22 27 35
14 6 -6 5 -12 -5 -18z m-4743 14 c-3 -3 -12 -4 -19 -1 -8 3 -5 6 6 6 11 1 17
-2 13 -5z m3363 2 c0 -3 -4 -8 -10 -11 -5 -3 -10 -1 -10 4 0 6 5 11 10 11 6 0
10 -2 10 -4z m-2760 -31 c0 -8 -2 -15 -4 -15 -2 0 -6 7 -10 15 -3 8 -1 15 4
15 6 0 10 -7 10 -15z m4240 -70 c0 -8 -9 -15 -19 -15 -14 0 -18 7 -17 24 1 20
4 22 19 15 9 -5 17 -16 17 -24z m-60 4 c0 -5 -4 -9 -10 -9 -5 0 -10 7 -10 16
0 8 5 12 10 9 6 -3 10 -10 10 -16z m176 10 c3 -6 -1 -18 -10 -27 -9 -9 -16
-11 -16 -5 0 6 -3 18 -6 27 -7 18 21 23 32 5z m-1618 -76 c-6 -16 -20 -37 -30
-48 -30 -32 -23 8 8 44 32 38 37 39 22 4z m1432 -8 c11 4 38 8 60 10 51 5 55
-20 5 -29 -19 -4 -35 -11 -35 -15 0 -8 -98 14 -108 23 -2 3 -2 13 2 22 6 15 8
15 32 0 14 -10 33 -14 44 -11z m-5013 -27 c-3 -8 -6 -5 -6 6 -1 11 2 17 5 13
3 -3 4 -12 1 -19z m-107 -72 c-5 -13 -6 -27 -3 -30 10 -10 -18 -35 -33 -29
-22 8 -17 49 9 66 31 22 38 21 27 -7z m952 -25 c0 -23 -2 -45 -6 -48 -3 -4 -6
18 -6 47 0 29 3 51 6 48 3 -3 5 -25 6 -47z m-889 -32 c-6 -20 -6 -20 -16 -3
-6 11 -15 22 -20 25 -5 4 -7 15 -3 24 6 16 8 16 25 -4 11 -13 17 -30 14 -42z
m5235 43 c10 -10 26 -21 35 -25 9 -3 17 -16 17 -27 0 -22 -18 -27 -26 -7 -2 7
-14 14 -27 14 -23 2 -47 28 -47 50 0 19 27 16 48 -5z m-5318 -78 c0 -8 -4 -12
-10 -9 -5 3 -10 10 -10 16 0 5 5 9 10 9 6 0 10 -7 10 -16z m5296 -30 c-3 -8
-1 -14 3 -14 5 0 11 5 13 12 3 7 11 9 24 4 17 -7 16 -10 -13 -35 -18 -15 -33
-32 -33 -38 0 -6 -7 -16 -15 -23 -33 -28 -50 33 -27 92 8 20 16 25 32 21 13
-3 19 -11 16 -19z m-1256 -88 c0 -3 -4 -8 -10 -11 -5 -3 -10 -1 -10 4 0 6 5
11 10 11 6 0 10 -2 10 -4z m-3903 -28 c-3 -8 -6 -5 -6 6 -1 11 2 17 5 13 3 -3
4 -12 1 -19z m5271 -15 c28 -25 39 -63 17 -63 -20 0 -75 31 -75 42 0 4 5 10
10 13 6 4 8 11 5 16 -10 16 22 10 43 -8z m-3517 -7 c63 -27 161 -149 234 -291
48 -95 54 -115 30 -115 -9 0 -18 -7 -22 -16 -3 -8 -15 -14 -27 -13 -11 2 -31
-2 -43 -9 -17 -9 -22 -9 -26 2 -6 15 19 30 33 21 19 -12 20 17 2 53 l-19 39
31 -1 c17 -1 32 4 34 9 1 6 -4 10 -10 10 -7 0 -19 5 -25 12 -7 6 -30 14 -52
18 -71 12 -175 53 -197 78 -30 35 -43 186 -18 204 23 16 34 16 75 -1z m3341 2
c12 -7 33 -25 48 -39 14 -14 31 -24 38 -21 7 2 28 -8 47 -23 38 -28 46 -63 21
-85 -8 -6 -25 -32 -36 -56 -24 -49 -36 -53 -68 -24 -22 21 -29 40 -14 40 5 0
14 18 21 40 11 38 26 47 64 41 4 0 7 2 7 7 -1 13 -51 44 -108 66 -43 17 -58
28 -60 44 -4 25 8 28 40 10z m-4269 -39 c-8 -29 -13 -23 -13 14 0 22 3 28 9
18 5 -7 6 -22 4 -32z m1 -45 c3 -8 2 -12 -4 -9 -6 3 -10 10 -10 16 0 14 7 11
14 -7z m2838 -16 c-7 -7 -12 -8 -12 -2 0 14 12 26 19 19 2 -3 -1 -11 -7 -17z
m-2840 -43 c2 -19 0 -35 -4 -35 -4 0 -8 16 -8 35 0 19 2 35 4 35 2 0 6 -16 8
-35z m4181 2 c-2 -4 -5 -7 -8 -7 -3 0 -12 0 -20 0 -8 0 -15 4 -15 10 0 5 10 8
23 6 12 -1 21 -6 20 -9z m55 -17 c-7 -11 -16 -20 -20 -20 -5 0 -8 9 -8 20 0
13 7 20 20 20 18 0 19 -2 8 -20z m-63 -32 c9 -18 21 -44 25 -58 4 -14 11 -34
16 -44 6 -16 4 -18 -9 -13 -20 7 -23 -13 -5 -31 8 -8 9 -12 1 -12 -6 0 -23 15
-37 32 -18 23 -22 35 -13 40 8 5 6 8 -5 8 -22 0 -23 29 -2 44 12 9 13 17 5 39
-15 38 4 34 24 -5z m-4178 -95 c-2 -16 -4 -5 -4 22 0 28 2 40 4 28 2 -13 2
-35 0 -50z m4418 9 c-8 -8 -25 10 -19 20 4 6 9 5 15 -3 4 -7 6 -15 4 -17z
m139 -63 c18 -27 10 -49 -18 -49 -30 0 -43 11 -51 43 -7 25 -5 27 23 27 20 0
36 -7 46 -21z m-4637 -25 c-3 -3 -12 -4 -19 -1 -8 3 -5 6 6 6 11 1 17 -2 13
-5z m80 -26 c-3 -7 -5 -2 -5 12 0 14 2 19 5 13 2 -7 2 -19 0 -25z m2915 -20
c-7 -7 -12 -8 -12 -2 0 14 12 26 19 19 2 -3 -1 -11 -7 -17z m1629 -21 c-13
-13 -26 -3 -16 12 3 6 11 8 17 5 6 -4 6 -10 -1 -17z m-4626 -47 c-3 -5 -11
-10 -16 -10 -6 0 -7 5 -4 10 3 6 11 10 16 10 6 0 7 -4 4 -10z m1125 -30 c-20
-13 -33 -13 -25 0 3 6 14 10 23 10 15 0 15 -2 2 -10z m-43 -6 c-3 -3 -12 -4
-19 -1 -8 3 -5 6 6 6 11 1 17 -2 13 -5z m3160 -16 c-3 -8 -6 -5 -6 6 -1 11 2
17 5 13 3 -3 4 -12 1 -19z m-12 -46 c-8 -8 -25 10 -19 20 4 6 9 5 15 -3 4 -7
6 -15 4 -17z m-291 -20 c-1 -2 -17 -1 -35 3 -30 7 -31 9 -15 20 15 11 20 11
35 -3 10 -9 16 -19 15 -20z m635 22 c2 -2 2 -7 -2 -10 -8 -9 -47 6 -47 17 0 9
37 3 49 -7z m-4480 -115 c-5 -9 -5 -19 -2 -23 3 -3 2 -6 -4 -6 -6 0 -11 26
-11 63 l-1 62 13 -40 c7 -22 9 -47 5 -56z m-249 77 c0 -2 -8 -10 -17 -17 -16
-13 -17 -12 -4 4 13 16 21 21 21 13z m1240 -6 c0 -5 -5 -10 -11 -10 -5 0 -7 5
-4 10 3 6 8 10 11 10 2 0 4 -4 4 -10z m2960 -14 c9 -12 8 -15 -8 -13 -10 0
-19 7 -19 14 0 17 12 17 27 -1z m-3010 -46 c0 -5 -4 -10 -10 -10 -5 0 -9 -5
-7 -12 1 -7 -5 -12 -13 -13 -8 0 -14 -6 -13 -12 1 -5 -7 -10 -18 -9 -10 0 -19
6 -18 11 0 6 5 9 10 8 5 -2 9 2 9 8 0 7 9 9 21 6 15 -4 18 -2 10 7 -6 7 -8 16
-4 19 10 11 33 8 33 -3z m3055 -28 c-3 -3 -11 0 -18 7 -9 10 -8 11 6 5 10 -3
15 -9 12 -12z m-4248 -12 c1 -11 -2 -22 -6 -24 -6 -4 -7 26 -2 42 3 8 7 -1 8
-18z m1303 16 c0 -3 -4 -8 -10 -11 -5 -3 -10 -1 -10 4 0 6 5 11 10 11 6 0 10
-2 10 -4z m-10 -61 c0 -8 -4 -15 -8 -15 -5 0 -9 7 -9 15 0 8 4 15 9 15 4 0 8
-7 8 -15z m-225 -37 c-1 -12 -7 -24 -15 -26 -7 -3 -11 -1 -8 4 3 5 8 17 11 27
9 23 14 21 12 -5z m3685 -24 c0 -8 -5 -12 -10 -9 -6 4 -8 11 -5 16 9 14 15 11
15 -7z m-610 -21 c-28 -11 -29 -27 -4 -50 26 -24 12 -32 -17 -10 -36 28 -27
68 16 66 14 0 16 -2 5 -6z m-3100 -17 c0 -2 -7 -6 -15 -10 -8 -3 -15 -1 -15 4
0 6 7 10 15 10 8 0 15 -2 15 -4z m10 -26 c0 -5 -2 -10 -4 -10 -3 0 -8 5 -11
10 -3 6 -1 10 4 10 6 0 11 -4 11 -10z m2888 -39 c3 -8 -4 -10 -25 -5 -34 8
-37 10 -29 23 8 12 48 -1 54 -18z m-2911 -5 c-3 -8 -2 -16 3 -18 6 -2 6 -9 0
-18 -5 -8 -12 -11 -16 -8 -7 8 3 58 12 58 3 0 4 -6 1 -14z m3218 5 c3 -5 -8
-9 -25 -9 -40 1 -50 18 -11 18 16 0 32 -4 36 -9z m-350 -30 c-6 -11 -71 -8
-82 3 -3 3 15 6 41 6 27 0 45 -4 41 -9z m708 -9 c13 -14 14 -21 5 -30 -7 -7
-18 -12 -26 -12 -7 0 -10 -4 -7 -10 7 -12 3 -12 -20 -3 -15 5 -14 8 6 18 l22
13 -22 7 c-21 6 -21 7 -4 21 24 18 27 17 46 -4z m-3573 -28 c0 -8 -19 -13 -24
-6 -3 5 1 9 9 9 8 0 15 -2 15 -3z m2682 -24 c5 -31 -6 -41 -16 -15 -5 13 1 45
9 45 1 0 5 -13 7 -30z m-2529 -38 c48 3 62 -17 22 -32 -50 -19 -84 -13 -97 18
-25 62 -16 91 15 42 18 -28 24 -31 60 -28z m110 28 c-3 -11 -9 -20 -14 -20
-10 0 -12 33 -3 43 12 12 22 -3 17 -23z m-1323 16 c0 -2 -8 -10 -17 -17 -16
-13 -17 -12 -4 4 13 16 21 21 21 13z m34 -26 c-6 -6 -10 -3 -10 10 0 13 4 16
10 10 7 -7 7 -13 0 -20z m36 6 c0 -2 -8 -10 -17 -17 -16 -13 -17 -12 -4 4 13
16 21 21 21 13z m1020 -43 c0 -3 -9 2 -19 11 -15 13 -20 14 -24 4 -2 -7 -8
-10 -12 -6 -4 4 -2 14 4 22 11 13 15 12 32 -5 10 -10 19 -22 19 -26z m-1095
27 c-3 -5 -12 -10 -18 -10 -7 0 -6 4 3 10 19 12 23 12 15 0z m4831 2 c40 -28
55 -96 32 -147 -20 -44 -31 -29 -24 35 7 59 7 60 -25 79 -18 11 -36 18 -41 15
-10 -6 -11 10 -1 19 9 9 45 9 59 -1z m-4891 -22 c3 -5 12 -7 20 -3 22 8 18 -1
-12 -28 -16 -13 -22 -17 -15 -9 16 18 16 35 -1 22 -10 -8 -13 -6 -13 9 0 20
11 25 21 9z m4795 0 c0 -5 -7 -10 -15 -10 -8 0 -15 5 -15 10 0 6 7 10 15 10 8
0 15 -4 15 -10z m-3683 -26 c-3 -3 -12 -4 -19 -1 -8 3 -5 6 6 6 11 1 17 -2 13
-5z m40 -10 c-3 -3 -12 -4 -19 -1 -8 3 -5 6 6 6 11 1 17 -2 13 -5z m-39 -16
c14 -14 16 -48 3 -48 -12 0 -25 19 -28 43 -3 20 8 22 25 5z m-1148 -22 c14
-18 14 -19 -8 -7 -12 7 -20 17 -16 22 3 6 7 9 8 7 1 -2 8 -12 16 -22z m1223
-8 c8 -28 4 -32 -27 -24 -18 4 -23 11 -19 26 7 27 39 26 46 -2z m3208 -15 c13
-16 12 -17 -3 -4 -10 7 -18 15 -18 17 0 8 8 3 21 -13z m-4402 -6 c-2 -1 -15
-11 -29 -22 l-25 -20 19 23 c11 12 24 22 29 22 6 0 8 -1 6 -3z m-19 -48 c-7
-11 -14 -18 -17 -15 -3 3 0 12 7 21 18 21 23 19 10 -6z m5020 -4 c0 -8 -4 -15
-10 -15 -5 0 -10 7 -10 15 0 8 5 15 10 15 6 0 10 -7 10 -15z m-224 -13 c-15
-3 -16 -6 -5 -13 11 -6 8 -9 -8 -9 -13 0 -23 6 -23 13 0 20 9 25 33 19 20 -6
20 -7 3 -10z m279 8 c-3 -5 -14 -10 -23 -10 -15 0 -15 2 -2 10 20 13 33 13 25
0z m-359 -68 c-18 -16 -18 -16 -6 6 6 13 14 21 18 18 3 -4 -2 -14 -12 -24z
m140 20 c13 -9 26 -54 13 -46 -5 3 -9 -4 -9 -15 0 -20 9 -25 37 -22 7 1 9 -7
6 -19 -3 -11 -10 -20 -15 -20 -5 0 -7 4 -3 9 3 5 1 12 -4 15 -5 3 -11 -1 -15
-9 -3 -8 -11 -12 -18 -10 -9 4 -14 -3 -15 -16 -3 -31 -21 -47 -29 -25 -9 25
13 69 31 62 8 -3 15 0 15 7 0 20 -17 40 -28 33 -17 -10 -20 27 -4 47 17 19 22
20 38 9z m-4856 -23 c0 -5 -7 -9 -15 -9 -15 0 -20 12 -9 23 8 8 24 -1 24 -14z
m4484 -24 c-4 -8 -14 -15 -23 -15 -9 0 -27 -3 -41 -6 -16 -3 -10 2 15 15 49
24 56 25 49 6z m121 -34 c3 -15 -1 -42 -9 -62 -8 -18 -16 -29 -16 -24 -7 100
-5 134 6 124 7 -6 15 -23 19 -38z m-4605 15 c0 -8 -6 -19 -14 -25 -18 -15 -27
6 -14 32 10 19 28 14 28 -7z m4783 11 c3 -7 -3 -18 -13 -25 -14 -9 -21 -7 -35
8 -13 14 -13 19 -3 23 24 10 46 7 51 -6z m-393 -27 c21 -7 19 -8 -17 -9 -23
-1 -45 4 -48 9 -7 12 29 12 65 0z m-4410 -63 c0 -18 -7 -42 -16 -53 -14 -18
-15 -16 -9 25 9 67 25 85 25 28z m80 19 c0 -2 -8 -10 -17 -17 -16 -13 -17 -12
-4 4 13 16 21 21 21 13z m1858 -56 c3 -14 -3 -29 -14 -37 -25 -18 -34 -16 -34
7 0 11 5 20 11 20 6 0 8 9 4 21 -6 17 -3 20 12 17 10 -2 19 -14 21 -28z m2546
11 c3 -5 -1 -11 -9 -14 -9 -4 -12 -1 -8 9 6 16 10 17 17 5z m261 -91 c-3 -5
-10 -10 -16 -10 -5 0 -9 5 -9 10 0 6 7 10 16 10 8 0 12 -4 9 -10z m-4768 -118
c-14 -17 -22 0 -12 26 5 14 7 14 15 2 5 -9 4 -20 -3 -28z m-3 -65 c1 -13 -4
-24 -11 -24 -12 0 -12 13 -4 56 3 13 15 -13 15 -32z m4391 -7 c3 -5 1 -10 -4
-10 -6 0 -11 5 -11 10 0 6 2 10 4 10 3 0 8 -4 11 -10z m20 -50 c-3 -5 -10 -10
-16 -10 -5 0 -9 5 -9 10 0 6 7 10 16 10 8 0 12 -4 9 -10z m878 -17 c-3 -7 -9
-13 -14 -13 -5 0 -9 6 -9 13 0 8 6 14 14 14 8 0 12 -6 9 -14z m-5173 -17 c0
-3 -4 -8 -10 -11 -5 -3 -10 -1 -10 4 0 6 5 11 10 11 6 0 10 -2 10 -4z m5177
-58 c-3 -8 -6 -5 -6 6 -1 11 2 17 5 13 3 -3 4 -12 1 -19z m-877 -19 c0 -6 -4
-7 -10 -4 -5 3 -10 11 -10 16 0 6 5 7 10 4 6 -3 10 -11 10 -16z m750 -45 c14
-15 19 -24 13 -20 -8 4 -13 1 -13 -8 0 -8 13 -17 31 -21 17 -4 34 -16 39 -28
12 -29 46 -67 59 -67 6 0 11 -5 11 -11 0 -6 -7 -8 -17 -5 -9 4 -19 2 -23 -3
-3 -6 -32 14 -64 44 -49 45 -58 58 -54 80 4 17 0 29 -11 35 -13 8 -14 9 -1 10
8 0 0 9 -17 20 -18 11 -33 22 -33 25 0 11 56 -24 80 -51z m-5201 0 c-12 -13
-25 -21 -28 -18 -3 4 0 9 7 11 6 3 12 13 12 24 0 12 5 17 16 12 13 -5 12 -9
-7 -29z m-69 16 c0 -5 -5 -10 -11 -10 -5 0 -7 5 -4 10 3 6 8 10 11 10 2 0 4
-4 4 -10z m5410 6 c0 -3 -4 -8 -10 -11 -5 -3 -10 -1 -10 4 0 6 5 11 10 11 6 0
10 -2 10 -4z m-883 -58 c-3 -8 -6 -5 -6 6 -1 11 2 17 5 13 3 -3 4 -12 1 -19z
m-4527 -19 c0 -5 -7 -9 -15 -9 -8 0 -15 7 -15 15 0 9 6 12 15 9 8 -4 15 -10
15 -15z m93 -31 c-6 -40 -20 -68 -34 -68 -6 0 -7 5 -4 10 3 6 0 10 -7 10 -7 0
-2 9 11 19 13 10 21 23 17 30 -8 12 0 31 14 31 4 0 6 -15 3 -32z m-83 -25 c0
-51 3 -63 19 -63 12 -1 11 -3 -4 -12 -11 -7 -25 -13 -30 -14 -15 -2 -17 39 -2
49 8 5 5 7 -8 5 -15 -2 -19 2 -17 17 3 17 27 45 39 45 2 0 3 -12 3 -27z m4885
-13 c8 -13 -15 -13 -35 0 -12 8 -11 10 7 10 12 0 25 -4 28 -10z m-392 -124
c-4 -16 -2 -27 3 -24 5 4 8 -13 8 -35 -1 -23 2 -49 6 -57 4 -8 4 -24 0 -35 -6
-15 -10 -7 -18 35 -13 66 -14 179 -2 159 5 -7 6 -26 3 -43z m57 -40 c0 -66 -9
-53 -16 20 -4 43 -2 55 5 44 6 -8 11 -37 11 -64z m683 47 c-13 -2 -33 -2 -45
0 -13 2 -3 4 22 4 25 0 35 -2 23 -4z m52 -73 c3 -5 -1 -10 -9 -10 -9 0 -16 5
-16 10 0 6 4 10 9 10 6 0 13 -4 16 -10z m132 -26 c-3 -3 -12 -4 -19 -1 -8 3
-5 6 6 6 11 1 17 -2 13 -5z m-857 -42 c0 -7 -4 -10 -10 -7 -5 3 -10 16 -10 28
0 18 2 19 10 7 5 -8 10 -21 10 -28z m-4710 -17 c0 -8 -4 -16 -9 -19 -5 -3 -8
5 -8 19 0 14 3 22 8 19 5 -3 9 -11 9 -19z m30 -23 c0 -15 -2 -15 -10 -2 -13
20 -13 33 0 25 6 -3 10 -14 10 -23z m4640 -12 c0 -5 -2 -10 -4 -10 -3 0 -8 5
-11 10 -3 6 -1 10 4 10 6 0 11 -4 11 -10z m50 -55 c0 -25 -3 -45 -7 -45 -9 0
-14 58 -8 78 9 25 15 11 15 -33z m1 -128 c-4 -4 -8 9 -8 30 -1 38 -1 38 8 8 5
-16 5 -33 0 -38z m-47 -65 c-2 -31 0 -52 7 -52 5 0 7 -5 3 -11 -14 -23 -24 17
-23 96 1 56 3 71 8 49 4 -16 6 -54 5 -82z m55 6 c-13 -24 -16 -23 -13 5 1 12
3 27 3 32 1 6 5 3 10 -4 6 -9 6 -22 0 -33z m958 -60 c-3 -8 -6 -5 -6 6 -1 11
2 17 5 13 3 -3 4 -12 1 -19z m-960 -40 c-3 -7 -5 -2 -5 12 0 14 2 19 5 13 2
-7 2 -19 0 -25z m973 -10 c0 -19 -2 -20 -10 -8 -13 19 -13 30 0 30 6 0 10 -10
10 -22z m-1010 -2 c0 -2 -7 -6 -15 -10 -8 -3 -15 -1 -15 4 0 6 7 10 15 10 8 0
15 -2 15 -4z m40 -62 c-9 -9 -9 -14 -2 -14 6 0 9 -7 6 -15 -10 -24 -20 -9 -19
28 2 44 19 72 23 39 2 -13 -2 -30 -8 -38z m-40 12 c0 -2 -7 -6 -15 -10 -8 -3
-15 -1 -15 4 0 6 7 10 15 10 8 0 15 -2 15 -4z m0 -60 c0 -3 -7 -3 -15 0 -8 4
-15 13 -15 21 0 12 2 12 15 -1 8 -8 15 -17 15 -20z m53 -196 c-5 -42 -9 -72
-13 -95 -1 -5 -6 4 -9 20 -4 17 -4 41 1 54 5 14 4 28 -2 36 -7 9 -7 21 2 40
11 24 13 25 19 8 4 -10 5 -38 2 -63z m-4498 3 c-103 -93 -175 -164 -185 -183
-12 -23 -50 -25 -57 -3 -6 16 75 102 130 139 23 16 44 32 47 36 6 7 91 48 100
48 3 -1 -13 -17 -35 -37z m5555 -13 c0 -5 -5 -10 -11 -10 -5 0 -7 5 -4 10 3 6
8 10 11 10 2 0 4 -4 4 -10z m-7 -33 c4 15 5 16 6 1 0 -9 -3 -19 -8 -22 -15 -9
-41 5 -41 22 0 13 3 13 19 -2 18 -17 19 -17 24 1z m-73 -39 c0 -10 -20 -11
-21 0 0 4 -2 16 -4 27 -4 20 -4 20 11 1 8 -11 14 -23 14 -28z m-950 2 c0 -5
-2 -10 -4 -10 -3 0 -8 5 -11 10 -3 6 -1 10 4 10 6 0 11 -4 11 -10z m890 -30
c0 -5 -2 -10 -4 -10 -3 0 -8 5 -11 10 -3 6 -1 10 4 10 6 0 11 -4 11 -10z m5
-30 c3 -5 -1 -10 -10 -10 -9 0 -13 5 -10 10 3 6 8 10 10 10 2 0 7 -4 10 -10z
m-35 -34 c0 -3 -4 -8 -10 -11 -5 -3 -10 -1 -10 4 0 6 5 11 10 11 6 0 10 -2 10
-4z m-693 -31 c62 -18 111 -54 91 -66 -7 -5 -35 -9 -63 -9 -35 0 -46 -3 -35
-10 24 -15 3 -23 -37 -13 -28 7 -38 14 -36 27 0 10 -7 34 -18 52 l-19 34 33 0
c19 0 56 -7 84 -15z m-4946 -37 c13 -24 -2 -38 -33 -30 -25 6 -34 28 -18 47
14 17 37 10 51 -17z m5574 22 c3 -5 1 -10 -4 -10 -6 0 -11 5 -11 10 0 6 2 10
4 10 3 0 8 -4 11 -10z m-90 -76 c-26 -20 -55 -36 -55 -30 0 5 63 46 70 46 3
-1 -4 -8 -15 -16z m-4375 -43 c3 -2 -5 -1 -17 2 -13 3 -25 2 -28 -3 -6 -10
-55 0 -55 12 0 5 13 7 30 3 20 -4 30 -3 30 5 0 11 11 6 40 -19z m4637 -163
c-3 -7 -5 -2 -5 12 0 14 2 19 5 13 2 -7 2 -19 0 -25z m103 -13 c0 -5 -5 -3
-10 5 -5 8 -10 20 -10 25 0 6 5 3 10 -5 5 -8 10 -19 10 -25z m-139 -134 c-8
-5 -20 -7 -28 -4 -21 8 -15 13 15 13 20 0 23 -3 13 -9z m233 -47 c3 -8 2 -12
-4 -9 -6 3 -10 10 -10 16 0 14 7 11 14 -7z m48 -86 c-7 -7 -12 -8 -12 -2 0 14
12 26 19 19 2 -3 -1 -11 -7 -17z m-79 -71 c3 -7 -3 -13 -14 -13 -13 0 -15 3
-7 13 6 7 12 13 13 13 2 0 5 -6 8 -13z m-118 -40 c-21 -11 -34 -1 -28 22 5 18
6 18 24 3 16 -14 17 -17 4 -25z m-48 1 c-3 -8 -6 -5 -6 6 -1 11 2 17 5 13 3
-3 4 -12 1 -19z m-4142 -108 c4 -6 10 -8 15 -5 5 3 11 1 15 -5 4 -6 -9 -10
-34 -10 -38 0 -50 8 -34 23 10 10 31 8 38 -3z m3718 -17 c-7 -2 -19 -2 -25 0
-7 3 -2 5 12 5 14 0 19 -2 13 -5z m-1812 -45 c-7 -33 -31 -52 -31 -24 0 18 21
56 31 56 4 0 4 -14 0 -32z m1662 25 c-7 -2 -19 -2 -25 0 -7 3 -2 5 12 5 14 0
19 -2 13 -5z m102 -33 c3 -5 -1 -10 -9 -10 -9 0 -16 5 -16 10 0 6 4 10 9 10 6
0 13 -4 16 -10z m40 -20 c3 -5 1 -10 -4 -10 -6 0 -11 5 -11 10 0 6 2 10 4 10
3 0 8 -4 11 -10z m-2205 -90 c0 -5 -2 -10 -4 -10 -3 0 -8 5 -11 10 -3 6 -1 10
4 10 6 0 11 -4 11 -10z m250 -16 c0 -14 -12 -19 -23 -8 -9 9 4 35 14 28 5 -3
9 -12 9 -20z m-632 -24 c9 -5 29 -14 45 -20 31 -11 35 -25 10 -39 -22 -11
-162 -16 -185 -6 -10 4 -25 4 -34 1 -20 -8 -70 22 -58 34 5 4 32 11 59 14 28
4 68 11 90 15 22 5 43 9 48 10 4 0 15 -3 25 -9z m781 -52 c13 -34 4 -35 -27
-5 -26 27 -26 27 -4 27 14 0 26 -8 31 -22z m-1429 -34 c9 -7 41 -16 72 -20 48
-6 61 -3 86 15 41 29 50 27 54 -11 3 -30 7 -34 43 -39 22 -3 56 -13 75 -22
l35 -15 -31 -1 c-17 -1 -53 6 -80 14 -47 14 -128 26 -319 46 -49 5 -96 10
-102 11 -27 3 11 28 41 27 17 0 45 4 61 9 31 10 40 8 65 -14z m3843 9 c-7 -2
-19 -2 -25 0 -7 3 -2 5 12 5 14 0 19 -2 13 -5z m-3523 -7 c0 -11 -19 -15 -25
-6 -3 5 1 10 9 10 9 0 16 -2 16 -4z m37 -12 c-3 -3 -12 -4 -19 -1 -8 3 -5 6 6
6 11 1 17 -2 13 -5z m91 -24 c-13 -21 -28 -27 -28 -10 0 5 8 14 18 19 23 14
24 14 10 -9z m-21 -50 c-1 -13 -8 -20 -21 -20 -19 0 -19 0 0 19 24 25 23 25
21 1z m3520 -6 c-3 -3 -12 -4 -19 -1 -8 3 -5 6 6 6 11 1 17 -2 13 -5z m-5497
-134 c0 -5 -4 -10 -9 -10 -6 0 -13 5 -16 10 -3 6 1 10 9 10 9 0 16 -4 16 -10z
m2945 -10 c4 -6 -6 -10 -22 -9 -25 0 -26 1 -8 9 11 5 21 9 22 9 1 1 5 -3 8 -9z"/>
<path d="M4437 7244 c-4 -4 -39 -8 -79 -9 -40 -2 -104 -8 -142 -13 -38 -6 -73
-9 -77 -7 -13 8 -94 -33 -119 -61 -22 -24 -22 -26 -5 -19 22 9 151 8 228 -1
48 -6 81 -27 74 -47 -3 -9 -114 -61 -145 -68 -22 -4 -81 -72 -95 -108 -15 -37
-15 -42 -2 -47 14 -6 13 -8 -2 -21 -16 -13 -14 -14 19 -9 21 2 40 1 43 -3 2
-5 24 -6 48 -4 29 4 54 0 76 -11 18 -10 42 -16 54 -14 34 5 28 -33 -7 -53 -28
-16 -29 -17 -10 -27 27 -14 154 10 199 38 36 22 95 84 95 100 0 6 -10 6 -26 0
-40 -16 -42 -12 -6 16 19 16 31 32 28 40 -3 8 3 23 13 33 34 34 7 103 -57 146
l-35 24 27 7 c27 6 33 18 15 29 -5 4 -14 18 -19 31 -5 13 -16 24 -25 24 -8 0
-15 9 -15 20 0 14 -7 20 -23 20 -13 0 -27 -3 -30 -6z m-202 -264 c-34 -23 -48
-25 -43 -8 3 7 15 15 29 19 42 12 45 9 14 -11z m-55 -30 c0 -12 -28 -25 -36
-17 -9 9 6 27 22 27 8 0 14 -5 14 -10z m128 -97 c13 -11 7 -13 -40 -13 -69 0
-88 16 -62 55 30 46 47 48 68 7 10 -20 25 -43 34 -49z m172 52 c0 -7 -6 -15
-13 -18 -10 -4 -13 2 -9 19 4 24 22 24 22 -1z"/>
<path d="M4733 6383 c-41 -16 18 -37 74 -27 34 6 35 8 18 20 -18 14 -68 17
-92 7z"/>
<path d="M3020 6440 c-6 -11 -8 -20 -6 -20 3 0 10 9 16 20 6 11 8 20 6 20 -3
0 -10 -9 -16 -20z"/>
<path d="M3157 7212 c-23 -25 -41 -75 -25 -70 7 3 18 15 24 27 7 13 17 28 23
34 6 6 11 15 11 19 0 14 -16 9 -33 -10z"/>
<path d="M6831 6934 c0 -11 3 -14 6 -6 3 7 2 16 -1 19 -3 4 -6 -2 -5 -13z"/>
<path d="M6831 6834 c0 -11 3 -14 6 -6 3 7 2 16 -1 19 -3 4 -6 -2 -5 -13z"/>
<path d="M2490 5535 c0 -8 7 -15 15 -15 8 0 15 7 15 15 0 8 -7 15 -15 15 -8 0
-15 -7 -15 -15z"/>
<path d="M2335 5240 c-3 -5 -1 -10 4 -10 6 0 11 5 11 10 0 6 -2 10 -4 10 -3 0
-8 -4 -11 -10z"/>
<path d="M2246 5012 c-9 -15 5 -52 20 -52 8 0 14 8 14 19 0 21 -25 46 -34 33z"/>
<path d="M2980 4921 c0 -5 7 -11 15 -15 8 -3 15 -1 15 3 0 5 -7 11 -15 15 -8
3 -15 1 -15 -3z"/>
<path d="M3081 4756 c-10 -11 -8 -16 9 -21 12 -4 24 -4 27 -1 4 3 -1 6 -10 6
-10 0 -14 5 -11 15 8 19 0 19 -15 1z"/>
<path d="M3095 4590 c-16 -7 -17 -9 -3 -9 9 -1 20 4 23 9 7 11 7 11 -20 0z"/>
<path d="M3136 4564 c-9 -23 -2 -28 13 -10 7 8 8 17 3 20 -6 3 -13 -1 -16 -10z"/>
<path d="M2170 4419 c0 -5 5 -7 10 -4 6 3 10 8 10 11 0 2 -4 4 -10 4 -5 0 -10
-5 -10 -11z"/>
<path d="M3040 4295 c7 -8 17 -15 22 -15 6 0 5 7 -2 15 -7 8 -17 15 -22 15 -6
0 -5 -7 2 -15z"/>
<path d="M3035 4020 c-3 -5 -13 -7 -23 -4 -14 5 -15 4 -2 -5 20 -14 27 -14 34
4 6 17 0 20 -9 5z"/>
<path d="M2800 3835 c-8 -55 -8 -65 2 -59 7 4 8 2 4 -5 -4 -6 -11 -9 -16 -6
-16 10 -23 -18 -8 -29 8 -6 14 -21 13 -33 -1 -13 2 -23 7 -23 5 0 7 -4 4 -9
-4 -5 3 -7 14 -4 11 3 17 9 14 14 -3 5 -10 7 -15 4 -11 -7 -12 38 -1 49 4 4 8
17 9 29 1 12 3 34 6 50 3 21 1 25 -8 17 -9 -8 -15 -7 -18 2 -3 7 -6 9 -7 3z"/>
<path d="M2756 3774 c-5 -14 -4 -15 9 -4 17 14 19 20 6 20 -5 0 -12 -7 -15
-16z"/>
<path d="M2682 3621 c0 -23 4 -29 18 -28 17 1 17 3 4 29 -18 35 -21 35 -22 -1z"/>
<path d="M2800 3635 c-9 -11 -10 -19 -3 -26 7 -7 14 -5 23 6 9 11 10 19 3 26
-7 7 -14 5 -23 -6z"/>
<path d="M4585 3600 c-3 -5 -1 -10 4 -10 6 0 11 5 11 10 0 6 -2 10 -4 10 -3 0
-8 -4 -11 -10z"/>
<path d="M4546 3565 c-11 -8 -18 -15 -15 -16 2 0 12 -2 21 -4 10 -2 20 1 24 6
3 5 0 9 -6 9 -6 0 -8 5 -5 10 8 13 4 12 -19 -5z"/>
<path d="M2571 3544 c0 -11 3 -14 6 -6 3 7 2 16 -1 19 -3 4 -6 -2 -5 -13z"/>
<path d="M4230 3505 c0 -14 -4 -25 -10 -25 -5 0 -10 7 -10 15 0 9 -6 12 -15 9
-8 -4 -15 -12 -15 -19 0 -8 -12 -23 -27 -34 -37 -30 -22 -36 27 -11 74 38 111
90 64 90 -8 0 -14 -10 -14 -25z"/>
<path d="M4518 3518 c-7 -17 8 -46 18 -35 4 4 3 17 -3 29 -7 17 -11 19 -15 6z"/>
<path d="M2665 3511 c-7 -12 2 -31 15 -31 9 0 8 26 -2 35 -3 4 -9 2 -13 -4z"/>
<path d="M2662 3267 c-8 -10 -6 -13 11 -14 12 0 16 1 9 4 -6 3 -10 9 -6 14 8
14 -2 11 -14 -4z"/>
<path d="M4560 3250 c0 -5 5 -10 11 -10 5 0 7 -5 3 -12 -4 -7 -3 -8 4 -4 6 4
9 13 5 21 -6 17 -23 20 -23 5z"/>
<path d="M2616 3215 c12 -9 14 -14 6 -15 -7 0 -10 -5 -6 -11 10 -16 26 5 18
24 -3 9 -13 17 -22 17 -13 0 -12 -3 4 -15z"/>
<path d="M4534 3220 c-11 -5 -34 -22 -51 -39 -18 -17 -34 -31 -38 -31 -18 0
-65 -44 -65 -61 0 -24 -4 -24 57 6 74 35 163 149 97 125z"/>
<path d="M7890 3210 c0 -5 5 -10 11 -10 5 0 7 5 4 10 -3 6 -8 10 -11 10 -2 0
-4 -4 -4 -10z"/>
<path d="M7837 3182 c-18 -20 -23 -47 -7 -37 6 3 7 -1 4 -9 -4 -11 0 -16 11
-16 9 0 13 5 10 10 -8 13 8 13 21 0 6 -6 19 -8 28 -4 13 5 15 9 5 15 -7 4 -14
15 -15 25 -2 16 -21 33 -35 34 -3 0 -13 -8 -22 -18z"/>
<path d="M4024 3165 c-17 -13 -17 -14 -2 -15 26 0 33 -21 9 -27 -21 -5 -30
-33 -11 -33 6 0 10 5 10 10 0 6 6 10 14 10 20 0 25 22 9 38 -7 8 -11 18 -8 23
9 13 2 11 -21 -6z"/>
<path d="M4085 3150 c-3 -5 1 -10 9 -10 9 0 16 5 16 10 0 6 -4 10 -9 10 -6 0
-13 -4 -16 -10z"/>
<path d="M8033 3143 c9 -9 19 -14 23 -11 10 10 -6 28 -24 28 -15 0 -15 -1 1
-17z"/>
<path d="M4299 3118 c-8 -29 -7 -78 1 -78 7 0 9 8 5 19 -3 11 -1 22 5 26 13 8
13 35 0 35 -5 0 -10 -1 -11 -2z"/>
<path d="M4080 3070 c-14 -11 -20 -20 -14 -20 6 0 19 9 29 20 23 25 17 25 -15
0z"/>
<path d="M3952 3063 c-20 -14 -29 -15 -59 -4 -19 7 -37 11 -39 8 -5 -4 57 -47
68 -47 3 0 21 13 39 30 36 31 30 40 -9 13z"/>
<path d="M7878 3073 c7 -3 16 -2 19 1 4 3 -2 6 -13 5 -11 0 -14 -3 -6 -6z"/>
<path d="M2680 3025 c-9 -11 -10 -15 -1 -15 7 0 9 -5 5 -12 -4 -7 -3 -8 5 -4
6 4 8 12 5 18 -4 6 2 6 15 -1 13 -7 21 -8 21 -2 0 6 -9 15 -19 20 -14 8 -22 7
-31 -4z"/>
<path d="M3853 3025 c9 -8 13 -25 11 -37 -4 -19 -2 -18 11 6 18 30 10 45 -23
46 -10 0 -10 -3 1 -15z"/>
<path d="M3974 3008 c-40 -41 -22 -45 30 -7 25 18 46 33 46 35 0 1 -11 1 -24
0 -13 0 -37 -13 -52 -28z"/>
<path d="M4520 3020 l-25 -20 41 0 c27 0 44 5 47 14 12 31 -26 35 -63 6z"/>
<path d="M4155 3019 c-4 -6 -5 -12 -2 -15 2 -3 7 2 10 11 7 17 1 20 -8 4z"/>
<path d="M4270 3000 c0 -13 11 -13 30 0 12 8 11 10 -7 10 -13 0 -23 -4 -23
-10z"/>
<path d="M1466 2722 c-3 -5 1 -9 9 -9 8 0 12 4 9 9 -3 4 -7 8 -9 8 -2 0 -6 -4
-9 -8z"/>
<path d="M2566 2472 c-3 -6 -1 -14 5 -17 15 -10 25 3 12 16 -7 7 -13 7 -17 1z"/>
<path d="M2488 2162 c-10 -2 -18 -10 -18 -17 0 -24 19 -27 40 -7 22 21 12 32
-22 24z"/>
<path d="M2601 2136 c-8 -10 -9 -16 -1 -21 5 -3 10 -5 11 -3 4 18 7 38 4 38
-1 0 -8 -6 -14 -14z"/>
<path d="M2229 1813 c-41 -35 -97 -122 -101 -158 -5 -46 23 -54 69 -19 21 16
41 28 44 27 4 -1 15 7 24 17 10 11 28 20 41 20 23 0 37 13 40 38 4 23 14 27
14 5 0 -15 11 -23 43 -33 23 -8 48 -18 55 -23 7 -6 45 -10 84 -11 l71 0 3 34
c1 19 1 43 -2 53 -7 24 -23 22 -17 -2 4 -16 0 -20 -19 -18 -14 1 -32 10 -42
20 -17 17 -29 21 -53 18 -7 -1 -27 6 -45 15 -52 27 -92 33 -107 17 -11 -12
-15 -11 -28 6 -19 28 -35 26 -74 -6z"/>
<path d="M8337 1669 c7 -7 15 -10 18 -7 3 3 -2 9 -12 12 -14 6 -15 5 -6 -5z"/>
<path d="M3430 1320 c0 -5 5 -10 11 -10 5 0 7 5 4 10 -3 6 -8 10 -11 10 -2 0
-4 -4 -4 -10z"/>
<path d="M4180 1090 c0 -5 5 -10 10 -10 6 0 10 5 10 10 0 6 -4 10 -10 10 -5 0
-10 -4 -10 -10z"/>
<path d="M4990 972 c0 -5 7 -9 15 -9 8 0 15 4 15 9 0 4 -7 8 -15 8 -8 0 -15
-4 -15 -8z"/>
<path d="M8530 959 c7 -11 14 -19 16 -16 7 7 -7 37 -17 37 -6 0 -5 -9 1 -21z"/>
<path d="M5850 865 c0 -19 4 -35 9 -35 5 0 9 16 9 35 0 19 -4 35 -9 35 -5 0
-9 -16 -9 -35z"/>
<path d="M5920 730 c0 -5 5 -10 11 -10 5 0 7 5 4 10 -3 6 -8 10 -11 10 -2 0
-4 -4 -4 -10z"/>
<path d="M6240 705 c0 -8 5 -15 10 -15 6 0 10 7 10 15 0 8 -4 15 -10 15 -5 0
-10 -7 -10 -15z"/>
<path d="M2150 654 c0 -8 5 -12 10 -9 6 3 10 10 10 16 0 5 -4 9 -10 9 -5 0
-10 -7 -10 -16z"/>
<path d="M2196 631 c-15 -17 -16 -19 -1 -25 27 -10 35 -7 35 13 0 28 -15 33
-34 12z"/>
<path d="M6145 610 c-3 -5 1 -10 9 -10 9 0 16 5 16 10 0 6 -4 10 -9 10 -6 0
-13 -4 -16 -10z"/>
<path d="M5645 521 c-7 -12 12 -24 25 -16 11 7 4 25 -10 25 -5 0 -11 -4 -15
-9z"/>
</g>
</svg>
